<?xml version="1.0" encoding="UTF-8" standalone="no"?>
<!-- Created with Inkscape (http://www.inkscape.org/) -->

<svg
   xmlns:dc="http://purl.org/dc/elements/1.1/"
   xmlns:cc="http://creativecommons.org/ns#"
   xmlns:rdf="http://www.w3.org/1999/02/22-rdf-syntax-ns#"
   xmlns:svg="http://www.w3.org/2000/svg"
   xmlns="http://www.w3.org/2000/svg"
   xmlns:sodipodi="http://sodipodi.sourceforge.net/DTD/sodipodi-0.dtd"
   xmlns:inkscape="http://www.inkscape.org/namespaces/inkscape"
   width="512"
   height="512"
   id="svg2"
   version="1.1"
   inkscape:version="0.48.5 r10040"
   sodipodi:docname="open.svg">
  <defs
     id="defs4" />
  <sodipodi:namedview
     id="base"
     pagecolor="#ffffff"
     bordercolor="#666666"
     borderopacity="1.0"
     inkscape:pageopacity="0.0"
     inkscape:pageshadow="2"
     inkscape:zoom="0.5"
     inkscape:cx="267.28737"
     inkscape:cy="-165.29916"
     inkscape:document-units="px"
     inkscape:current-layer="layer1"
     showgrid="false"
     fit-margin-top="0"
     fit-margin-left="0"
     fit-margin-right="0"
     fit-margin-bottom="0"
     inkscape:snap-bbox="true"
     inkscape:bbox-paths="true"
     inkscape:bbox-nodes="true"
     inkscape:snap-bbox-edge-midpoints="true"
     inkscape:snap-bbox-midpoints="true"
     inkscape:object-paths="true"
     inkscape:snap-intersection-paths="true"
     inkscape:object-nodes="true"
     inkscape:snap-smooth-nodes="true"
     inkscape:snap-global="false"
     inkscape:snap-midpoints="true"
     inkscape:snap-object-midpoints="true"
     inkscape:snap-center="true"
     inkscape:snap-page="true"
     showguides="true"
     inkscape:guide-bbox="true"
     inkscape:window-width="1600"
     inkscape:window-height="837"
     inkscape:window-x="-8"
     inkscape:window-y="-8"
     inkscape:window-maximized="1" />
  <metadata
     id="metadata7">
    <rdf:RDF>
      <cc:Work
         rdf:about="">
        <dc:format>image/svg+xml</dc:format>
        <dc:type
           rdf:resource="http://purl.org/dc/dcmitype/StillImage" />
        <dc:title />
      </cc:Work>
    </rdf:RDF>
  </metadata>
  <g
     inkscape:label="Layer 1"
     inkscape:groupmode="layer"
     id="layer1"
     transform="translate(-532.57141,-402.07648)">
    <path
       style="fill:#000000;fill-opacity:1;stroke:none"
       d="m 707.88775,464.99905 c -1.4334,0.0268 -2.865,0.15217 -4.2812,0.375 l -121.6563,0 c -8.1979,-0.001 -16.3594,3.35945 -22.1562,9.15625 -5.7968,5.7968 -9.1574,13.95834 -9.1563,22.15625 l 0,323.15625 c 0,8.19791 3.3595,16.35945 9.1563,22.15625 5.7968,5.79679 13.9583,9.15741 22.1562,9.15625 l 317.56249,0 c 1.8218,2.2e-4 3.646,-0.17738 5.4375,-0.5 l 3.125,0 c 23.5055,0 49.6758,-19.58867 58.6563,-43.9375 l 56.75006,-153.9375 c 8.9804,-24.34884 -2.7132,-43.9375 -26.21881,-43.9375 l -299.90624,0 c -23.5054,0 -49.6445,19.58867 -58.625,43.9375 l -56.7813,153.9375 0,-310.03125 126.0313,0 0,0.46875 0.2187,-0.84375 c 17.6206,11.81127 25.8523,23.62623 37.5,35.4375 13.4825,13.41802 30.3025,24.10455 54.125,29.0625 l 100.84379,0.25 c 0,10.68945 -0.01,21.37346 -0.031,32.0625 l 31.3125,0 c 0.024,-10.68932 0.031,-21.36709 0.031,-32.0625 10e-4,-8.1875 -3.3726,-16.32978 -9.1563,-22.125 -5.7836,-5.79522 -13.9062,-9.17231 -22.0937,-9.1875 l -96.8438,-0.25 c -16.38859,-3.8283 -26.43219,-10.32217 -36.09369,-19.9375 -9.4582,-9.63788 -20.3905,-24.66022 -42.1563,-39.25 -5.2056,-3.49458 -11.4804,-5.37259 -17.75,-5.3125 z"
       id="path3865"
       inkscape:connector-curvature="0" />
    <path
       inkscape:connector-curvature="0"
       style="font-size:20px;font-style:normal;font-variant:normal;font-weight:normal;font-stretch:normal;line-height:125%;letter-spacing:3.53999996px;word-spacing:0px;fill:#ffffff;fill-opacity:1;stroke:none;font-family:Navigator;-inkscape-font-specification:Navigator"
       d="m 734.55217,704.84633 c -6.5707,6e-5 -13.80355,3.09723 -20.41678,8.5 -6.61201,5.40181 -11.61887,12.12381 -14.66373,19.5625 -3.04487,7.43874 -3.5657,14.15927 -1.39526,19.59375 2.17123,5.43641 6.86676,8.59375 13.45109,8.59375 6.58429,0 13.84892,-3.13147 20.50488,-8.5625 6.66565,-5.439 11.67632,-12.18794 14.72054,-19.625 3.04405,-7.43677 3.55313,-14.15604 1.31998,-19.5625 -2.2283,-5.3977 -6.95012,-8.49994 -13.52072,-8.5 z m 42.46875,0 a 3.2645866,4.9020598 50.783317 0 0 -5.23106,4 l -19.75004,48.25 a 3.2645866,4.9020598 50.783317 0 0 2.36267,4 l 2.59375,0 2.1875,0 a 3.2645866,4.9020598 50.783317 0 0 5.63733,-4 l 1.6245,-3.96875 5.43639,-13.28125 c 5.19984,-0.0317 9.60263,-0.36099 13.39249,-1.875 0.0102,-0.004 0.0212,0.004 0.0312,0 0.0834,-0.0335 0.17392,-0.0593 0.2571,-0.0937 l -0.0185,-0.0312 c 3.7393,-1.352 7.32235,-3.38327 10.45031,-6.0625 3.32457,-2.84768 5.84805,-6.34725 7.34327,-10 1.83157,-4.47471 1.98026,-8.72593 0.26134,-11.9375 -1.71899,-3.21138 -5.17787,-4.99994 -9.60961,-5 -0.90312,5e-5 -2.36154,5e-5 -4.375,0 -2.01353,5e-5 -3.52734,5e-5 -4.5,0 -2.98583,5e-5 -5.53428,5e-5 -7.6875,0 a 3.2645866,4.9020598 50.783317 0 0 -0.40625,0 z m 51.5625,0 a 3.2645866,4.9020598 50.783317 0 0 -5.23106,4 l -19.75004,48.25 a 3.2645866,4.9020598 50.783317 0 0 2.36267,4 l 27.8125,0 a 3.2645866,4.9020598 50.783317 0 0 5.63733,-4 l 2.17455,-5.3125 a 3.2645866,4.9020598 50.783317 0 0 -2.3627,-4 l -18.09375,0 3.33858,-8.15625 14.4375,0 a 3.2645866,4.9020598 50.783317 0 0 5.63731,-4 l 2.17455,-5.3125 a 3.2645866,4.9020598 50.783317 0 0 -2.3627,-4 l -14.4375,0 3.33858,-8.15625 18.09375,0 a 3.2645866,4.9020598 50.783317 0 0 5.63731,-4 l 2.17456,-5.3125 a 3.2645866,4.9020598 50.783317 0 0 -2.36269,-4 l -27.8125,0 a 3.2645866,4.9020598 50.783317 0 0 -0.40625,0 z m 50.96875,0 a 3.2645866,4.9020598 50.783317 0 0 -5.23106,4 l -19.75004,48.25 a 3.2645866,4.9020598 50.783317 0 0 2.36267,4 l 5.09375,0 a 3.2645866,4.9020598 50.783317 0 0 5.63733,-4 l 9.26102,-22.625 1.9289,24.375 a 3.2645866,4.9020598 50.783317 0 0 2.67275,2.25 l 1.34375,0 5,0 a 3.2645866,4.9020598 50.783317 0 0 5.63733,-4 l 19.75004,-48.25 a 3.2645866,4.9020598 50.783317 0 0 -2.36269,-4 l -5,0 a 3.2645866,4.9020598 50.783317 0 0 -5.63731,4 c -0.14365,0.35093 -2.72318,6.65275 -7.72606,18.875 l -0.69074,1.6875 -1.80438,-22.3125 a 3.2645866,4.9020598 50.783317 0 0 -2.67276,-2.25 l -7.40625,0 a 3.2645866,4.9020598 50.783317 0 0 -0.40625,0 z m -98.24288,11.96875 6.3125,0 c 1.64087,3e-5 2.45475,0.38396 3.12467,1.375 0.62394,0.92313 0.65133,1.5926 0.0788,2.9375 -0.005,0.0126 -0.008,0.0186 -0.0134,0.0312 -0.80747,1.72959 -1.77494,2.88205 -3.30635,4.03125 -1.45682,1.09323 -2.37892,1.43752 -3.80717,1.4375 l -6.40625,0 4.01653,-9.8125 z m -52.10542,1.25 c 3.22004,3e-5 4.99534,1.07555 6.12548,3.96875 1.13493,2.90569 0.89778,6.35725 -0.97702,10.9375 -1.87487,4.58031 -4.46258,8.03089 -7.97701,10.9375 -3.4987,2.89357 -6.15413,3.96876 -9.37453,3.96875 -3.22046,1e-5 -5.03046,-1.08558 -6.15672,-3.96875 -1.13534,-2.90631 -0.89795,-6.35691 0.97701,-10.9375 1.87481,-4.58023 4.46408,-8.03278 7.97702,-10.9375 3.48766,-2.88364 6.18527,-3.96872 9.40577,-3.96875 z"
       id="path3070" />
  </g>
</svg>
