<?xml version="1.0" encoding="UTF-8" standalone="no"?>
<!-- Created with Inkscape (http://www.inkscape.org/) -->

<svg
   xmlns:dc="http://purl.org/dc/elements/1.1/"
   xmlns:cc="http://creativecommons.org/ns#"
   xmlns:rdf="http://www.w3.org/1999/02/22-rdf-syntax-ns#"
   xmlns:svg="http://www.w3.org/2000/svg"
   xmlns="http://www.w3.org/2000/svg"
   xmlns:sodipodi="http://sodipodi.sourceforge.net/DTD/sodipodi-0.dtd"
   xmlns:inkscape="http://www.inkscape.org/namespaces/inkscape"
   width="512"
   height="512"
   id="svg2"
   version="1.1"
   inkscape:version="0.48.5 r10040"
   sodipodi:docname="save.svg">
  <defs
     id="defs4" />
  <sodipodi:namedview
     id="base"
     pagecolor="#ffffff"
     bordercolor="#666666"
     borderopacity="1.0"
     inkscape:pageopacity="0.0"
     inkscape:pageshadow="2"
     inkscape:zoom="0.5"
     inkscape:cx="210.01862"
     inkscape:cy="145.17668"
     inkscape:document-units="px"
     inkscape:current-layer="g3822"
     showgrid="false"
     fit-margin-top="0"
     fit-margin-left="0"
     fit-margin-right="0"
     fit-margin-bottom="0"
     inkscape:snap-bbox="true"
     inkscape:bbox-paths="true"
     inkscape:bbox-nodes="true"
     inkscape:snap-bbox-edge-midpoints="true"
     inkscape:snap-bbox-midpoints="true"
     inkscape:object-paths="true"
     inkscape:snap-intersection-paths="true"
     inkscape:object-nodes="true"
     inkscape:snap-smooth-nodes="true"
     inkscape:snap-global="false"
     inkscape:snap-midpoints="true"
     inkscape:snap-object-midpoints="true"
     inkscape:snap-center="true"
     inkscape:snap-page="true"
     showguides="true"
     inkscape:guide-bbox="true"
     inkscape:window-width="1600"
     inkscape:window-height="837"
     inkscape:window-x="-8"
     inkscape:window-y="-8"
     inkscape:window-maximized="1" />
  <metadata
     id="metadata7">
    <rdf:RDF>
      <cc:Work
         rdf:about="">
        <dc:format>image/svg+xml</dc:format>
        <dc:type
           rdf:resource="http://purl.org/dc/dcmitype/StillImage" />
        <dc:title />
      </cc:Work>
    </rdf:RDF>
  </metadata>
  <g
     inkscape:label="Layer 1"
     inkscape:groupmode="layer"
     id="layer1"
     transform="translate(-532.57141,-402.07648)">
    <g
       id="g3822"
       transform="translate(-1.25e-6,0)">
      <path
         sodipodi:nodetypes="ccccsccccccccssccccsscccccccccccccccccscssssssccccccsccccccccccccccccccccccccsssccccssssssscccccccccc"
         inkscape:connector-curvature="0"
         id="path3810"
         d="m 765.25889,568.63113 c 0.91105,4e-4 1.86023,0.0475 2.8125,0.1294 -1.10982,-0.0954 -1.10272,-0.0987 0.0312,0 0.10438,0.008 0.20858,0.0192 0.3125,0.0323 0.1101,0.0106 0.30075,0.0518 0.4375,0.0647 0.22332,0.0211 0.40412,0.0234 0.71875,0.0647 0.16773,0.0261 0.33454,0.0585 0.5,0.097 17.46608,-0.003 27.53929,16.76024 30.09375,30.95835 0.0236,0.16602 0.009,0.35039 0.0312,0.5176 0.19635,1.50636 0.34309,3.06003 0.34375,4.65832 l 0,55.58873 0.0312,0.93813 42.25,0 c 2.78489,-0.004 5.48426,1.88895 6.51393,4.56753 1.02967,2.67859 0.23865,5.88943 -1.70143,7.95172 l -23.0625,22.51524 -31.1875,30.47322 c -2.56906,2.5173 -7.05594,2.5173 -9.625,0 l -31.18735,-30.47311 -23.0625,-22.51524 c -2.02602,-1.97794 -2.7311,-5.27314 -1.70143,-7.95173 1.02967,-2.67857 3.72904,-4.57137 6.51393,-4.56753 l 35.9375,0 c 0.0208,-9e-5 0.0417,-9e-5 0.0625,0 -9e-5,-0.0215 -9e-5,-0.0432 0,-0.0647 l 0,-61.63808 c -9e-5,-0.0215 -9e-5,-0.0432 0,-0.0647 -0.0208,9e-5 -0.0417,9e-5 -0.0625,0 l -112.00001,0 c -0.0208,9e-5 -0.0417,9e-5 -0.0625,0 9e-5,0.0215 9e-5,0.0432 0,0.0647 l 0,149.98881 c 9e-5,0.0215 9e-5,0.0432 0,0.0647 0.0208,-9e-5 0.0417,-9e-5 0.0625,0 l 260.81251,0 c 0.0208,-9e-5 0.0417,-9e-5 0.0625,0 -9e-5,-0.0215 -9e-5,-0.0432 0,-0.0647 l 0,-171.30712 c -2.8e-4,-2.4622 1.30598,-4.88239 3.33165,-6.17282 2.02568,-1.29043 4.70142,-1.40691 6.8246,-0.29708 -0.77816,-0.40643 0.23842,-0.0558 1.65625,0.74404 2.24442,1.2662 3.27455,2.00454 5.21875,3.62314 1.94214,1.6169 2.85928,2.50376 4.53125,4.49658 1.67714,1.99898 2.38212,3.05662 3.65625,5.27297 1.28044,2.22733 1.85778,3.39008 2.75,5.85525 0.88793,2.45331 1.20396,3.73728 1.65625,6.30815 0.44769,2.54473 0.58915,3.83539 0.59375,6.4699 l 0,139.76637 0,0.0647 c 9e-5,0.0215 9e-5,0.0432 0,0.0647 -0.0209,2.06158 -0.11251,3.15902 -0.4375,5.27297 l -0.125,1.58512 c -1.46654,7.97088 -5.41653,15.41979 -11.4375,20.83307 -6.36562,5.72316 -14.64561,8.945 -23.09375,8.96081 l -251.00001,0 c -8.04422,-0.004 -15.84952,-3.0191 -22.09375,-8.21677 -0.0737,-0.0417 -0.14659,-0.0849 -0.21875,-0.1294 -0.16092,-0.11183 -0.31735,-0.23058 -0.46875,-0.35584 -0.0687,-0.06 -0.10249,-0.0826 -0.15625,-0.1294 -0.042,-0.0319 -0.0837,-0.0642 -0.125,-0.097 -0.6922,-0.61804 -1.22384,-1.10517 -1.875,-1.77922 -0.008,-0.007 -0.0231,-0.025 -0.0312,-0.0323 -0.12041,-0.10698 -0.14478,-0.15309 -0.21875,-0.22644 -0.004,-0.005 -0.0202,-0.0147 -0.0625,-0.0647 -0.0462,-0.0472 -0.12112,-0.12419 -0.15625,-0.16175 l -10e-5,-1e-4 -0.0312,-0.0323 c -0.0311,-0.0325 -0.10215,-0.11024 -0.125,-0.1294 -0.0752,-0.0834 -0.25839,-0.28723 -0.59375,-0.67934 l 0.0312,0 c -0.33886,-0.38854 -0.69745,-0.78499 -1.125,-1.32633 -0.021,-0.0214 -0.0418,-0.043 -0.0625,-0.0647 -0.0165,-0.0213 -0.0148,-0.0424 -0.0312,-0.0647 -0.27519,-0.35642 -0.51913,-0.65259 -0.96875,-1.29397 -2e-5,-0.0108 -2e-5,-0.0215 0,-0.0323 -0.47448,-0.65621 -0.67257,-0.95357 -1,-1.45573 -0.12419,-0.1989 -0.23896,-0.4041 -0.34375,-0.61464 -0.88331,-1.36482 -1.49609,-2.32711 -2.3125,-4.07603 -0.9244,-1.98026 -1.28745,-2.98502 -1.90625,-5.04652 -0.63561,-2.11752 -0.8406,-3.17779 -1.15625,-5.30532 -0.31243,-2.10586 -0.43009,-3.19337 -0.4375,-5.37002 -2e-5,-0.0108 -2e-5,-0.0215 0,-0.0323 l 0,-0.0323 0,-139.79872 c 0.002,-2.64352 0.14914,-3.93154 0.59375,-6.4699 0.45175,-2.57912 0.77187,-3.82734 1.65625,-6.2758 0.87402,-2.41978 1.3852,-3.58706 2.6875,-5.85526 1.30123,-2.26635 2.07342,-3.34248 3.71875,-5.30531 1.64932,-1.9676 2.55651,-2.88379 4.53125,-4.52893 1.94651,-1.62164 2.97594,-2.35719 5.21875,-3.62314 2.23238,-1.26008 3.36928,-1.76918 5.75,-2.58796 2.15498,-0.74114 3.771,-0.98651 4.84375,-1.16458 l 0.0312,0.25879 c 0.40589,-0.14727 0.82491,-0.25572 1.25,-0.32349 1.65354,-0.26103 3.3904,-0.4521 5.1875,-0.4529 l 102.00001,0 z m 34.93745,32.05834 c 0.005,0.2084 -0.055,1.10007 -0.0625,1.19693 0.005,-0.0584 0.0625,-0.71186 0.0625,-0.71169 -10e-6,2.6e-4 0.001,-0.26866 0,-0.48524 z"
         style="fill:#000000;fill-opacity:1;stroke:none" />
      <path
         inkscape:connector-curvature="0"
         style="font-size:20px;font-style:normal;font-variant:normal;font-weight:normal;font-stretch:normal;line-height:125%;letter-spacing:3.53999996px;word-spacing:0px;fill:#000000;fill-opacity:1;stroke:none;font-family:Navigator;-inkscape-font-specification:Navigator"
         d="m 700.13391,462.00232 c -2.43254,6e-5 -4.77677,0.37723 -6.96875,1.09375 -2.21049,0.72269 -4.2415,1.80098 -6,3.28125 -1.75462,1.47711 -3.16389,3.31304 -4.15625,5.34375 -1.04117,2.13067 -1.5625,4.51693 -1.5625,7 0,2.23132 0.37172,4.33175 1.1875,6.21875 0.75281,1.74142 1.82224,3.33928 3.21875,4.6875 1.34834,1.30182 2.96152,2.37106 4.78125,3.28125 1.66544,0.83308 3.49521,1.61876 5.5,2.40625 0.0138,0.006 0.0176,0.0257 0.0312,0.0312 1.46122,0.5987 2.783,1.17743 4,1.71875 1.0072,0.44805 1.7815,0.9192 2.3125,1.34375 0.44788,0.35814 0.68468,0.66748 0.875,1.0625 0.12159,0.2524 0.28123,0.81351 0.28125,1.75 -2e-5,0.71033 -0.12291,1.21403 -0.3125,1.65625 -0.20482,0.4777 -0.44883,0.81949 -0.8125,1.15625 -0.31898,0.29142 -0.82697,0.63289 -1.625,0.90625 -0.75912,0.26003 -1.64164,0.40626 -2.71875,0.40625 -0.60918,10e-6 -1.45514,-0.0792 -2.4375,-0.28125 -1.06463,-0.21897 -2.0551,-0.48636 -2.96875,-0.78125 -0.94394,-0.30464 -1.78798,-0.62619 -2.59375,-1 -0.83163,-0.38579 -1.48648,-0.74048 -1.875,-1 a 4.0003998,4.0003998 0 0 0 -6.21875,3.3125 l 0,5.625 a 4.0003998,4.0003998 0 0 0 1.53125,3.15625 c 0.98425,0.76702 2.10777,1.34902 3.3125,1.8125 1.06961,0.41151 2.1914,0.7866 3.34375,1.09375 1.23088,0.32809 2.51579,0.55922 3.875,0.71875 1.31507,0.15436 2.66964,0.25 4.03125,0.25 2.83409,0 5.44273,-0.43464 7.8125,-1.3125 2.29147,-0.84887 4.38367,-2.0563 6.09375,-3.71875 1.66137,-1.61516 2.95842,-3.57097 3.78125,-5.71875 0.81701,-2.13277 1.18746,-4.43941 1.1875,-6.8125 -4e-5,-2.19031 -0.31357,-4.25788 -1.0625,-6.15625 -0.71507,-1.81226 -1.7855,-3.47293 -3.15625,-4.84375 -1.29631,-1.29624 -2.86566,-2.4117 -4.625,-3.375 -1.62024,-0.88705 -3.4162,-1.75141 -5.40625,-2.5625 -1.33705,-0.53455 -2.66094,-1.02644 -3.9375,-1.5 -1.06299,-0.4723 -1.96035,-0.98396 -2.6875,-1.46875 -0.52975,-0.35315 -0.83662,-0.66411 -1.0625,-1.03125 -0.14261,-0.23176 -0.25001,-0.49008 -0.25,-1.125 0,-0.49909 0.094,-1.00641 0.3125,-1.5625 0.15908,-0.40482 0.33064,-0.62063 0.625,-0.875 0.37218,-0.32159 0.85036,-0.63587 1.59375,-0.90625 0.6335,-0.23038 1.45443,-0.37497 2.53125,-0.375 0.75484,3e-5 1.54698,0.0687 2.40625,0.1875 0.89443,0.12371 1.75769,0.26771 2.5625,0.46875 0.80402,0.20092 1.51302,0.43595 2.15625,0.6875 0.80512,0.31496 1.51113,0.59484 2,0.8125 a 4.0003998,4.0003998 0 0 0 5.625,-3.6562 l 0,-5.53125 a 4.0003998,4.0003998 0 0 0 -2.46875,-3.6875 c -0.96782,-0.40378 -1.87439,-0.7313 -2.71875,-1 -0.99595,-0.31678 -1.99586,-0.52505 -2.96875,-0.6875 -0.96663,-0.16128 -1.98313,-0.29783 -3.03125,-0.375 -0.98979,-0.0728 -2.09853,-0.12494 -3.34375,-0.125 z m 52.875,0 a 4.0003998,4.0003998 0 0 0 -3.3125,2.5 c -2.09324,5.16136 -5.25956,13.13941 -9.53125,23.90625 -4.26804,10.75762 -7.53272,18.87179 -9.75,24.34375 a 4.0003998,4.0003998 0 0 0 3.71875,5.5 l 4.8125,0 a 4.0003998,4.0003998 0 0 0 3.71875,-2.53125 l 4.625,-11.75 17.5625,0 4.625,11.75 a 4.0003998,4.0003998 0 0 0 3.71875,2.53125 l 4.8125,0 a 4.0003998,4.0003998 0 0 0 3.71875,-5.5 c -4.16595,-10.41537 -10.6011,-26.48345 -19.28125,-48.21875 a 4.0003998,4.0003998 0 0 0 -3.71875,-2.53125 l -5.3125,0 a 4.0003998,4.0003998 0 0 0 -0.40625,0 z m 45.0625,0 a 4.0003998,4.0003998 0 0 0 -3.3125,5.4375 l 18.53125,48.25 a 4.0003998,4.0003998 0 0 0 3.71875,2.5625 l 6.25,0 a 4.0003998,4.0003998 0 0 0 3.71875,-2.5625 l 18.5625,-48.25 a 4.0003998,4.0003998 0 0 0 -3.71875,-5.4375 l -5.75,0 a 4.0003998,4.0003998 0 0 0 -3.71875,2.5625 l -12.21875,31.78125 -12.21875,-31.78125 a 4.0003998,4.0003998 0 0 0 -3.71875,-2.5625 l -5.71875,0 a 4.0003998,4.0003998 0 0 0 -0.40625,0 z m 65.40625,0 a 4.0003998,4.0003998 0 0 0 -3.59375,4 l 0,48.25 a 4.0003998,4.0003998 0 0 0 4,4 l 27.8125,0 a 4.0003998,4.0003998 0 0 0 4,-4 l 0,-5.3125 a 4.0003998,4.0003998 0 0 0 -4,-4 l -18.0625,0 0,-8.15625 14.4375,0 a 4.0003998,4.0003998 0 0 0 4,-4 l 0,-5.3125 a 4.0003998,4.0003998 0 0 0 -4,-4 l -14.4375,0 0,-8.15625 18.0625,0 a 4.0003998,4.0003998 0 0 0 4,-4 l 0,-5.3125 a 4.0003998,4.0003998 0 0 0 -4,-4 l -27.8125,0 a 4.0003998,4.0003998 0 0 0 -0.40625,0 z m -107.4375,20.0625 c 0.32746,0.81339 0.41799,1.00131 0.78125,1.90625 1.16347,2.8985 1.79861,4.52657 2.65625,6.6875 l -6.84375,0 c 0.67918,-1.70074 2.09949,-5.28656 3.40625,-8.59375 z"
         id="path3028" />
    </g>
  </g>
</svg>
