<?xml version="1.0" encoding="UTF-8" standalone="no"?>
<!-- Created with Inkscape (http://www.inkscape.org/) -->

<svg
   xmlns:dc="http://purl.org/dc/elements/1.1/"
   xmlns:cc="http://creativecommons.org/ns#"
   xmlns:rdf="http://www.w3.org/1999/02/22-rdf-syntax-ns#"
   xmlns:svg="http://www.w3.org/2000/svg"
   xmlns="http://www.w3.org/2000/svg"
   xmlns:sodipodi="http://sodipodi.sourceforge.net/DTD/sodipodi-0.dtd"
   xmlns:inkscape="http://www.inkscape.org/namespaces/inkscape"
   width="512"
   height="512"
   id="svg2"
   version="1.1"
   inkscape:version="0.48.5 r10040"
   sodipodi:docname="save_as.svg">
  <defs
     id="defs4" />
  <sodipodi:namedview
     id="base"
     pagecolor="#ffffff"
     bordercolor="#666666"
     borderopacity="1.0"
     inkscape:pageopacity="0.0"
     inkscape:pageshadow="2"
     inkscape:zoom="0.70710678"
     inkscape:cx="108.34879"
     inkscape:cy="186.45588"
     inkscape:document-units="px"
     inkscape:current-layer="layer1"
     showgrid="false"
     fit-margin-top="0"
     fit-margin-left="0"
     fit-margin-right="0"
     fit-margin-bottom="0"
     inkscape:snap-bbox="true"
     inkscape:bbox-paths="true"
     inkscape:bbox-nodes="true"
     inkscape:snap-bbox-edge-midpoints="true"
     inkscape:snap-bbox-midpoints="true"
     inkscape:object-paths="true"
     inkscape:snap-intersection-paths="true"
     inkscape:object-nodes="true"
     inkscape:snap-smooth-nodes="true"
     inkscape:snap-global="false"
     inkscape:snap-midpoints="true"
     inkscape:snap-object-midpoints="true"
     inkscape:snap-center="true"
     inkscape:snap-page="true"
     showguides="true"
     inkscape:guide-bbox="true"
     inkscape:window-width="1600"
     inkscape:window-height="837"
     inkscape:window-x="-8"
     inkscape:window-y="-8"
     inkscape:window-maximized="1" />
  <metadata
     id="metadata7">
    <rdf:RDF>
      <cc:Work
         rdf:about="">
        <dc:format>image/svg+xml</dc:format>
        <dc:type
           rdf:resource="http://purl.org/dc/dcmitype/StillImage" />
        <dc:title />
      </cc:Work>
    </rdf:RDF>
  </metadata>
  <g
     inkscape:label="Layer 1"
     inkscape:groupmode="layer"
     id="layer1"
     transform="translate(-532.57141,-402.07648)">
    <path
       style="fill:#000000;fill-opacity:1;stroke:none"
       d="M 130.6875 166.5625 C 128.8904 166.5633 127.15354 166.73897 125.5 167 C 125.07491 167.06777 124.65589 167.19648 124.25 167.34375 L 124.21875 167.0625 C 123.146 167.24057 121.52998 167.50886 119.375 168.25 C 116.99428 169.06878 115.85738 169.55242 113.625 170.8125 C 111.38219 172.07845 110.35276 172.81586 108.40625 174.4375 C 106.43151 176.08264 105.52432 177.00115 103.875 178.96875 C 102.22967 180.93158 101.45748 182.0149 100.15625 184.28125 C 98.85395 186.54945 98.34277 187.70522 97.46875 190.125 C 96.58437 192.57346 96.26425 193.82713 95.8125 196.40625 C 95.36789 198.94461 95.22075 200.23148 95.21875 202.875 L 95.21875 342.6875 L 95.21875 342.71875 C 95.21873 342.72955 95.21873 342.7392 95.21875 342.75 C 95.22616 344.92665 95.34382 346.01914 95.65625 348.125 C 95.9719 350.25253 96.17689 351.31998 96.8125 353.4375 C 97.4313 355.499 97.79435 356.48849 98.71875 358.46875 C 99.53516 360.21767 100.14794 361.16643 101.03125 362.53125 C 101.13604 362.74179 101.25081 362.95735 101.375 363.15625 C 101.70243 363.65841 101.90052 363.96879 102.375 364.625 C 102.37498 364.6358 102.37498 364.64545 102.375 364.65625 C 102.82462 365.29763 103.06856 365.58108 103.34375 365.9375 C 103.36015 365.9598 103.3585 365.9787 103.375 366 C 103.3957 366.0217 103.4165 366.0411 103.4375 366.0625 C 103.86505 366.60384 104.22364 367.01771 104.5625 367.40625 L 104.53125 367.40625 C 104.86661 367.79836 105.0498 367.9791 105.125 368.0625 C 105.14785 368.08166 105.2189 368.18625 105.25 368.21875 L 105.28125 368.25 C 105.31638 368.28756 105.3913 368.35905 105.4375 368.40625 C 105.4798 368.45625 105.496 368.46375 105.5 368.46875 C 105.57397 368.5421 105.59834 368.58052 105.71875 368.6875 C 105.72685 368.6948 105.742 368.71175 105.75 368.71875 C 106.40116 369.3928 106.9328 369.88196 107.625 370.5 C 107.6663 370.5328 107.708 370.56185 107.75 370.59375 C 107.80376 370.64055 107.83755 370.65875 107.90625 370.71875 C 108.05765 370.84401 108.21408 370.98192 108.375 371.09375 C 108.44716 371.13825 108.52005 371.17705 108.59375 371.21875 C 114.83798 376.41642 122.64328 379.4335 130.6875 379.4375 L 171.875 379.4375 L 171.875 347.96875 L 125.6875 347.96875 C 125.6667 347.96866 125.6458 347.96866 125.625 347.96875 C 125.62509 347.94725 125.62509 347.8965 125.625 347.875 L 125.625 197.90625 C 125.62509 197.88475 125.62509 197.86525 125.625 197.84375 C 125.6458 197.84384 125.6667 197.84384 125.6875 197.84375 L 237.6875 197.84375 C 237.7083 197.84384 237.7292 197.84384 237.75 197.84375 C 237.74991 197.86525 237.74991 197.88475 237.75 197.90625 L 237.75 259.53125 C 237.74991 259.55275 237.74991 259.57225 237.75 259.59375 C 237.7292 259.59366 237.7083 259.59366 237.6875 259.59375 L 201.75 259.59375 C 198.96511 259.58991 196.27967 261.47768 195.25 264.15625 C 194.22033 266.83484 194.91148 270.14706 196.9375 272.125 L 220 294.625 L 251.1875 325.125 C 253.75656 327.6423 258.24344 327.6423 260.8125 325.125 L 292 294.625 L 315.0625 272.125 C 317.00258 270.06271 317.77967 266.83484 316.75 264.15625 C 315.72033 261.47767 313.03489 259.58975 310.25 259.59375 L 268 259.59375 L 267.96875 258.65625 L 267.96875 203.0625 C 267.96809 201.46421 267.82135 199.91261 267.625 198.40625 C 267.6028 198.23904 267.61735 198.07227 267.59375 197.90625 C 265.03929 183.70814 254.96608 166.9345 237.5 166.9375 C 237.33454 166.899 237.16773 166.86985 237 166.84375 C 236.68537 166.80245 236.50457 166.80235 236.28125 166.78125 C 236.1445 166.76835 235.95385 166.72935 235.84375 166.71875 C 235.73983 166.70565 235.63563 166.6955 235.53125 166.6875 C 235.51037 166.68568 235.52012 166.68925 235.5 166.6875 C 234.54773 166.6056 233.59855 166.5629 232.6875 166.5625 L 130.6875 166.5625 z M 393.28125 169.375 C 392.09371 169.42669 390.91909 169.76103 389.90625 170.40625 C 387.88058 171.69668 386.56222 174.13155 386.5625 176.59375 L 386.5625 347.875 C 386.56241 347.8965 386.56241 347.94725 386.5625 347.96875 C 386.5417 347.96866 386.5208 347.96866 386.5 347.96875 L 340.125 347.96875 L 340.125 379.4375 L 381.6875 379.4375 C 390.13564 379.42169 398.41563 376.19191 404.78125 370.46875 C 410.80222 365.05547 414.75221 357.59588 416.21875 349.625 L 416.34375 348.0625 C 416.66874 345.94855 416.76035 344.84283 416.78125 342.78125 C 416.78134 342.75975 416.78134 342.74025 416.78125 342.71875 L 416.78125 342.65625 L 416.78125 202.875 C 416.77665 200.24049 416.63519 198.95098 416.1875 196.40625 C 415.73521 193.83538 415.41918 192.54706 414.53125 190.09375 C 413.63903 187.62858 413.06169 186.47733 411.78125 184.25 C 410.50712 182.03365 409.80214 180.96773 408.125 178.96875 C 406.45303 176.97593 405.53589 176.08565 403.59375 174.46875 C 401.64955 172.85015 400.61942 172.10995 398.375 170.84375 C 396.95717 170.04391 395.94059 169.71857 396.71875 170.125 C 395.65716 169.57009 394.46879 169.32331 393.28125 169.375 z M 267.625 198.625 C 267.626 198.84158 267.62499 199.09401 267.625 199.09375 C 267.625 199.09358 267.5675 199.7541 267.5625 199.8125 C 267.57 199.71564 267.63 198.8334 267.625 198.625 z "
       transform="translate(532.57141,402.07648)"
       id="path3810" />
    <path
       transform="translate(0,3.5355339)"
       style="fill:#000000;fill-opacity:1;stroke:none"
       d="m 763.65625,719.71875 c -0.53933,0.01 -1.04766,0.0489 -1.53125,0.125 l -37.25,0 c -2.95966,-3.6e-4 -5.84022,1.184 -7.9375,3.28125 -2.09729,2.09727 -3.31291,4.99592 -3.3125,7.96875 l 0,99.59375 c 0,2.97256 1.21514,5.87141 3.3125,7.96875 2.09727,2.09727 4.97782,3.28166 7.9375,3.28125 l 97.90625,0 c 0.57223,6e-5 1.11608,-0.0712 1.65625,-0.15625 l 0.96875,0 c 8.13132,0 16.57234,-6.37056 19.59375,-14.5625 L 862.46875,779.75 c 1.50959,-4.09303 1.34775,-8.02368 -0.40625,-10.96875 -1.754,-2.94507 -5.09056,-4.71875 -9.15625,-4.71875 l -92.4375,0 c -8.13133,0 -16.57234,6.37059 -19.59375,14.5625 l -14.40625,39.0625 0,-85 36.59375,0 c 0.17789,0.0752 0.36951,0.11777 0.5625,0.125 4.6868,3.31641 7.07545,6.65101 10.59375,10.21875 4.32835,4.30767 9.85849,7.78464 17.5,9.375 0.10281,0.0206 0.20765,0.0311 0.3125,0.0312 l 29.5,0.0937 c 6.2e-4,2.76137 0.003,3.51991 0,6.28125 0.002,0.83383 0.75992,1.59136 1.59375,1.59375 l 9.65625,0 c 0.83383,-0.002 1.59136,-0.75992 1.59375,-1.59375 0.007,-3.29931 0,-4.58058 0,-7.875 3.7e-4,-2.97186 -1.21999,-5.87209 -3.3125,-7.96875 -2.08991,-2.09412 -4.95322,-3.27577 -7.90625,-3.28125 l -29.59375,-0.0937 c -4.7264,-1.12133 -7.44089,-2.86469 -10.25,-5.65625 -2.75936,-2.81182 -6.30764,-7.64332 -13.21875,-12.28125 -0.008,-0.005 -0.0235,0.005 -0.0312,0 -1.87354,-1.25091 -4.11211,-1.9592 -6.375,-1.9375 -0.0104,-10e-5 -0.0208,-10e-5 -0.0312,0 z"
       id="path2991"
       inkscape:connector-curvature="0"
       sodipodi:nodetypes="cccscsscccsccsssccccccccccccccccccccccc" />
    <path
       inkscape:connector-curvature="0"
       style="font-size:20px;font-style:normal;font-variant:normal;font-weight:normal;font-stretch:normal;line-height:125%;letter-spacing:3.53999996px;word-spacing:0px;fill:#000000;fill-opacity:1;stroke:none;font-family:Navigator;-inkscape-font-specification:Navigator"
       d="m 584.77457,461.1567 c -2.43254,6e-5 -4.77677,0.37723 -6.96875,1.09375 -2.21049,0.72269 -4.2415,1.80098 -6,3.28125 -1.75462,1.47711 -3.16389,3.31304 -4.15625,5.34375 -1.04117,2.13067 -1.5625,4.51693 -1.5625,7 0,2.23132 0.37172,4.33175 1.1875,6.21875 0.75281,1.74142 1.82224,3.33928 3.21875,4.6875 1.34834,1.30182 2.96152,2.37106 4.78125,3.28125 1.66544,0.83308 3.49521,1.61876 5.5,2.40625 0.0138,0.006 0.0176,0.0257 0.0312,0.0312 1.46122,0.5987 2.783,1.17743 4,1.71875 1.0072,0.44805 1.7815,0.9192 2.3125,1.34375 0.44788,0.35814 0.68468,0.66748 0.875,1.0625 0.12159,0.2524 0.28123,0.81351 0.28125,1.75 -2e-5,0.71033 -0.12291,1.21403 -0.3125,1.65625 -0.20482,0.4777 -0.44883,0.81949 -0.8125,1.15625 -0.31898,0.29142 -0.82697,0.63289 -1.625,0.90625 -0.75912,0.26003 -1.64164,0.40626 -2.71875,0.40625 -0.60918,10e-6 -1.45514,-0.0792 -2.4375,-0.28125 -1.06463,-0.21897 -2.0551,-0.48636 -2.96875,-0.78125 -0.94394,-0.30464 -1.78798,-0.62619 -2.59375,-1 -0.83163,-0.38579 -1.48648,-0.74048 -1.875,-1 a 4.0003998,4.0003998 0 0 0 -6.21875,3.3125 l 0,5.625 a 4.0003998,4.0003998 0 0 0 1.53125,3.15625 c 0.98425,0.76702 2.10777,1.34902 3.3125,1.8125 1.06961,0.41151 2.1914,0.7866 3.34375,1.09375 1.23088,0.32809 2.51579,0.55922 3.875,0.71875 1.31507,0.15436 2.66964,0.25 4.03125,0.25 2.83409,0 5.44273,-0.43464 7.8125,-1.3125 2.29147,-0.84887 4.38367,-2.0563 6.09375,-3.71875 1.66137,-1.61516 2.95842,-3.57097 3.78125,-5.71875 0.81701,-2.13277 1.18746,-4.43941 1.1875,-6.8125 -4e-5,-2.19031 -0.31357,-4.25788 -1.0625,-6.15625 -0.71507,-1.81226 -1.7855,-3.47293 -3.15625,-4.84375 -1.29631,-1.29624 -2.86566,-2.4117 -4.625,-3.375 -1.62024,-0.88705 -3.4162,-1.75141 -5.40625,-2.5625 -1.33705,-0.53455 -2.66094,-1.02644 -3.9375,-1.5 -1.06299,-0.4723 -1.96035,-0.98396 -2.6875,-1.46875 -0.52975,-0.35315 -0.83662,-0.66411 -1.0625,-1.03125 -0.14261,-0.23176 -0.25001,-0.49008 -0.25,-1.125 0,-0.49909 0.094,-1.00641 0.3125,-1.5625 0.15908,-0.40482 0.33064,-0.62063 0.625,-0.875 0.37218,-0.32159 0.85036,-0.63587 1.59375,-0.90625 0.6335,-0.23038 1.45443,-0.37497 2.53125,-0.375 0.75484,3e-5 1.54698,0.0687 2.40625,0.1875 0.89443,0.12371 1.75769,0.26771 2.5625,0.46875 0.80402,0.20092 1.51302,0.43595 2.15625,0.6875 0.80512,0.31496 1.51113,0.59484 2,0.8125 a 4.0003998,4.0003998 0 0 0 5.625,-3.6562 l 0,-5.53125 a 4.0003998,4.0003998 0 0 0 -2.46875,-3.6875 c -0.96782,-0.40378 -1.87439,-0.7313 -2.71875,-1 -0.99595,-0.31678 -1.99586,-0.52505 -2.96875,-0.6875 -0.96663,-0.16128 -1.98313,-0.29783 -3.03125,-0.375 -0.98979,-0.0728 -2.09853,-0.12494 -3.34375,-0.125 z m 52.875,0 a 4.0003998,4.0003998 0 0 0 -3.3125,2.5 c -2.09324,5.16136 -5.25956,13.13941 -9.53125,23.90625 -4.26804,10.75762 -7.53272,18.87179 -9.75,24.34375 a 4.0003998,4.0003998 0 0 0 3.71875,5.5 l 4.8125,0 a 4.0003998,4.0003998 0 0 0 3.71875,-2.53125 l 4.625,-11.75 17.5625,0 4.625,11.75 a 4.0003998,4.0003998 0 0 0 3.71875,2.53125 l 4.8125,0 a 4.0003998,4.0003998 0 0 0 3.71875,-5.5 c -4.16595,-10.41537 -10.6011,-26.48345 -19.28125,-48.21875 a 4.0003998,4.0003998 0 0 0 -3.71875,-2.53125 l -5.3125,0 a 4.0003998,4.0003998 0 0 0 -0.40625,0 z m 45.0625,0 a 4.0003998,4.0003998 0 0 0 -3.3125,5.4375 l 18.53125,48.25 a 4.0003998,4.0003998 0 0 0 3.71875,2.5625 l 6.25,0 a 4.0003998,4.0003998 0 0 0 3.71875,-2.5625 l 18.5625,-48.25 a 4.0003998,4.0003998 0 0 0 -3.71875,-5.4375 l -5.75,0 a 4.0003998,4.0003998 0 0 0 -3.71875,2.5625 l -12.21875,31.78125 -12.21875,-31.78125 a 4.0003998,4.0003998 0 0 0 -3.71875,-2.5625 l -5.71875,0 a 4.0003998,4.0003998 0 0 0 -0.40625,0 z m 65.40623,0 a 4.0003998,4.0003998 0 0 0 -3.5937,4 l 0,48.25 a 4.0003998,4.0003998 0 0 0 4,4 l 27.8125,0 a 4.0003998,4.0003998 0 0 0 4,-4 l 0,-5.3125 a 4.0003998,4.0003998 0 0 0 -4,-4 l -18.0625,0 0,-8.15625 14.4375,0 a 4.0003998,4.0003998 0 0 0 4,-4 l 0,-5.3125 a 4.0003998,4.0003998 0 0 0 -4,-4 l -14.4375,0 0,-8.15625 18.0625,0 a 4.0003998,4.0003998 0 0 0 4,-4 l 0,-5.3125 a 4.0003998,4.0003998 0 0 0 -4,-4 l -27.8125,0 a 4.0003998,4.0003998 0 0 0 -0.4063,0 z m 93.5625,0 a 4.0003998,4.0003998 0 0 0 -3.3125,2.5 c -2.0932,5.16136 -5.2595,13.13941 -9.5312,23.90625 -4.2681,10.75762 -7.5328,18.87179 -9.75,24.34375 a 4.0003998,4.0003998 0 0 0 3.7187,5.5 l 4.7813,0 a 4.0003998,4.0003998 0 0 0 3.7187,-2.53125 l 4.625,-11.75 17.5938,0 4.625,11.75 a 4.0003998,4.0003998 0 0 0 3.7187,2.53125 l 4.7813,0 a 4.0003998,4.0003998 0 0 0 3.7187,-5.5 c -4.1634,-10.40897 -10.5686,-26.48038 -19.25,-48.21875 a 4.0003998,4.0003998 0 0 0 -3.7187,-2.53125 l -5.3125,0 a 4.0003998,4.0003998 0 0 0 -0.4063,0 z m 60.6875,0 c -2.4325,6e-5 -4.7951,0.37299 -7,1.09375 -2.2105,0.72269 -4.2415,1.80098 -6,3.28125 -1.7546,1.47711 -3.1639,3.31304 -4.1562,5.34375 -1.0601,2.16935 -1.5313,4.55978 -1.5313,7 0,2.18516 0.3188,4.28159 1.1563,6.21875 0.7528,1.74142 1.8222,3.33928 3.2187,4.6875 1.3781,1.33054 3.0123,2.38082 4.8125,3.28125 1.6655,0.83308 3.4952,1.61876 5.5,2.40625 0.014,0.006 0.018,0.0257 0.031,0.0312 1.4612,0.5987 2.783,1.17743 4,1.71875 1.0072,0.44805 1.7815,0.9192 2.3125,1.34375 0.4479,0.35814 0.6847,0.66748 0.875,1.0625 0.1216,0.2524 0.2812,0.81351 0.2813,1.75 -10e-5,0.71033 -0.1229,1.21403 -0.3125,1.65625 -0.1769,0.41254 -0.4427,0.78505 -0.8438,1.15625 -0.3573,0.32648 -0.8156,0.63971 -1.5937,0.90625 -0.7393,0.25322 -1.6729,0.40626 -2.75,0.40625 -0.6092,10e-6 -1.4103,-0.0764 -2.4063,-0.28125 -1.0646,-0.21897 -2.0551,-0.48636 -2.9687,-0.78125 -0.9655,-0.31159 -1.8489,-0.63996 -2.625,-1 -0.802,-0.37202 -1.4041,-0.70627 -1.8438,-1 a 4.0003998,4.0003998 0 0 0 -6.2187,3.31255 l 0,5.625 a 4.0003998,4.0003998 0 0 0 1.5313,3.15625 c 0.9842,0.76702 2.1077,1.34902 3.3125,1.8125 1.0407,0.4004 2.1409,0.78147 3.3125,1.09375 1.2501,0.33322 2.5551,0.56017 3.9062,0.71875 1.307,0.1534 2.6384,0.25 4,0.25 2.8341,0 5.4604,-0.42962 7.8438,-1.3125 2.2914,-0.84887 4.3836,-2.0563 6.0937,-3.71875 1.6614,-1.61516 2.9584,-3.57097 3.7813,-5.71875 0.817,-2.13277 1.1874,-4.43941 1.1875,-6.8125 -10e-5,-2.19031 -0.3136,-4.25788 -1.0625,-6.15625 -0.7151,-1.81226 -1.7855,-3.47293 -3.1563,-4.84375 -1.3255,-1.3255 -2.918,-2.42326 -4.6562,-3.375 -1.6203,-0.88705 -3.4162,-1.75141 -5.4063,-2.5625 -1.337,-0.53455 -2.6609,-1.02644 -3.9375,-1.5 -1.063,-0.4723 -1.9603,-0.98396 -2.6875,-1.46875 -0.4956,-0.33039 -0.7703,-0.60707 -1.0312,-1.03125 -0.1426,-0.23176 -0.25,-0.49008 -0.25,-1.125 0,-0.57912 0.09,-1.0755 0.2812,-1.5625 0.1591,-0.40482 0.3307,-0.62063 0.625,-0.875 0.3313,-0.28629 0.8597,-0.62789 1.625,-0.90625 0.6335,-0.23038 1.4544,-0.37497 2.5313,-0.375 0.7548,3e-5 1.5469,0.0687 2.4062,0.1875 0.8944,0.12371 1.7577,0.26771 2.5625,0.46875 0.804,0.20092 1.513,0.43595 2.1563,0.6875 0.7721,0.30207 1.4346,0.57469 1.9687,0.8125 a 4.0003998,4.0003998 0 0 0 5.625,-3.65625 l 0,-5.53125 a 4.0003998,4.0003998 0 0 0 -2.4687,-3.6875 c -0.9351,-0.3901 -1.8131,-0.72174 -2.6875,-1 -0.996,-0.31678 -1.9959,-0.52505 -2.9688,-0.6875 -0.9666,-0.16128 -1.9831,-0.29783 -3.0312,-0.375 -0.9898,-0.0728 -2.0986,-0.12494 -3.3438,-0.125 z m -57.6562,20.03125 c 0.3315,0.82352 0.4128,1.01983 0.7812,1.9375 1.1635,2.8985 1.7986,4.52657 2.6563,6.6875 l -6.875,0 c 0.6842,-1.70318 2.1159,-5.29439 3.4375,-8.625 z m -204.03128,0.0312 c 0.32746,0.81339 0.41799,1.00131 0.78125,1.90625 1.16347,2.8985 1.79861,4.52657 2.65625,6.6875 l -6.84375,0 c 0.67918,-1.70074 2.09949,-5.28656 3.40625,-8.59375 z M 941.6183,501.3754 c -2.0405,2e-5 -4.2103,0.89784 -5.6562,2.34375 -1.4786,1.47863 -2.3438,3.6736 -2.3438,5.71875 0,2.04515 0.9265,4.27358 2.4375,5.71875 1.4337,1.37121 3.5132,2.25 5.5625,2.25 2.0493,0 4.1288,-0.87883 5.5625,-2.25 1.4733,-1.40913 2.4687,-3.59864 2.4688,-5.71875 -10e-5,-2.1201 -0.9333,-4.27702 -2.375,-5.71875 -1.4459,-1.44587 -3.6158,-2.34373 -5.6563,-2.34375 z m 30.7188,0 c -2.0405,2e-5 -4.2104,0.89784 -5.6563,2.34375 -1.4417,1.44173 -2.375,3.59862 -2.375,5.71875 0,2.12013 0.9954,4.30962 2.4688,5.71875 1.4336,1.37121 3.5132,2.25 5.5625,2.25 2.0493,0 4.1288,-0.87883 5.5625,-2.25 1.511,-1.44517 2.4374,-3.67362 2.4375,-5.71875 -10e-5,-2.04513 -0.8652,-4.24012 -2.3438,-5.71875 -1.4459,-1.44587 -3.6157,-2.34373 -5.6562,-2.34375 z m 30.6875,0 c -2.0405,2e-5 -4.2104,0.89784 -5.6563,2.34375 -1.4786,1.47863 -2.3437,3.6736 -2.3437,5.71875 0,2.04515 0.9264,4.27358 2.4375,5.71875 1.4336,1.37121 3.5132,2.25 5.5625,2.25 2.0493,0 4.1288,-0.87883 5.5625,-2.25 1.4733,-1.40913 2.4687,-3.59864 2.4687,-5.71875 0,-2.1201 -0.9333,-4.27702 -2.375,-5.71875 -1.4459,-1.44587 -3.6157,-2.34373 -5.6562,-2.34375 z"
       id="path3018" />
  </g>
</svg>
