<?xml version="1.0" encoding="UTF-8" standalone="no"?>
<!-- Created with Inkscape (http://www.inkscape.org/) -->

<svg
   xmlns:dc="http://purl.org/dc/elements/1.1/"
   xmlns:cc="http://creativecommons.org/ns#"
   xmlns:rdf="http://www.w3.org/1999/02/22-rdf-syntax-ns#"
   xmlns:svg="http://www.w3.org/2000/svg"
   xmlns="http://www.w3.org/2000/svg"
   xmlns:sodipodi="http://sodipodi.sourceforge.net/DTD/sodipodi-0.dtd"
   xmlns:inkscape="http://www.inkscape.org/namespaces/inkscape"
   width="512"
   height="512"
   id="svg2"
   version="1.1"
   inkscape:version="0.48.5 r10040"
   sodipodi:docname="copy_columns.svg">
  <defs
     id="defs4" />
  <sodipodi:namedview
     id="base"
     pagecolor="#ffffff"
     bordercolor="#666666"
     borderopacity="1.0"
     inkscape:pageopacity="0.0"
     inkscape:pageshadow="2"
     inkscape:zoom="1.4142136"
     inkscape:cx="224.19216"
     inkscape:cy="304.71628"
     inkscape:document-units="px"
     inkscape:current-layer="layer1"
     showgrid="false"
     fit-margin-top="0"
     fit-margin-left="0"
     fit-margin-right="0"
     fit-margin-bottom="0"
     inkscape:snap-bbox="true"
     inkscape:bbox-paths="true"
     inkscape:bbox-nodes="true"
     inkscape:snap-bbox-edge-midpoints="true"
     inkscape:snap-bbox-midpoints="true"
     inkscape:object-paths="true"
     inkscape:snap-intersection-paths="true"
     inkscape:object-nodes="true"
     inkscape:snap-smooth-nodes="true"
     inkscape:snap-global="false"
     inkscape:snap-midpoints="true"
     inkscape:snap-object-midpoints="true"
     inkscape:snap-center="true"
     inkscape:snap-page="true"
     showguides="true"
     inkscape:guide-bbox="true"
     inkscape:window-width="1600"
     inkscape:window-height="837"
     inkscape:window-x="-8"
     inkscape:window-y="-8"
     inkscape:window-maximized="1" />
  <metadata
     id="metadata7">
    <rdf:RDF>
      <cc:Work
         rdf:about="">
        <dc:format>image/svg+xml</dc:format>
        <dc:type
           rdf:resource="http://purl.org/dc/dcmitype/StillImage" />
        <dc:title />
      </cc:Work>
    </rdf:RDF>
  </metadata>
  <g
     inkscape:label="Layer 1"
     inkscape:groupmode="layer"
     id="layer1"
     transform="translate(-532.57141,-402.07648)">
    <g
       id="layer1-2"
       inkscape:label="Layer 1"
       transform="translate(-538.84272,18.431336)"
       style="fill:#000000">
      <path
         sodipodi:nodetypes="ccccccccccccccc"
         inkscape:connector-curvature="0"
         id="path2988"
         d="m 1227.1842,548.45759 c -0.7464,0.1603 -1.327,0.89297 -1.3125,1.65625 0.1083,99.68805 0,198.46362 0,298.21875 0,0.86643 0.7898,1.6534 1.6562,1.65625 36.3729,-0.0101 72.7384,0 109.0938,0 0.8664,-0.003 1.6534,-0.78982 1.6562,-1.65625 -0.01,-99.4266 0,-198.78298 0,-298.21875 0,-0.86643 -0.7898,-1.6534 -1.6562,-1.65625 -38.1468,-10e-4 -76.7779,-4e-5 -109.4375,0 z m 19.6875,21.03125 c 23.4683,0.003 46.927,0 70.4062,0 0.01,86.50354 0,172.95401 0,259.46875 -23.4392,0.008 -47.0221,0 -70.4687,0 0.041,-0.13672 0.062,-0.29309 0.062,-0.4375 -0.1019,-83.40549 0,-172.14568 0,-259.03125 z"
         style="font-size:77.78161620999998100px;font-style:normal;font-variant:normal;font-weight:normal;font-stretch:normal;line-height:125%;letter-spacing:13.76734543000000100px;word-spacing:0px;fill:#000000;fill-opacity:1;stroke:none;font-family:Navigator;-inkscape-font-specification:Navigator" />
    </g>
    <path
       style="font-size:77.78161621px;font-style:normal;font-variant:normal;font-weight:normal;font-stretch:normal;line-height:125%;letter-spacing:13.76734543px;word-spacing:0px;fill:#000000;fill-opacity:1;stroke:none;font-family:Navigator;-inkscape-font-specification:Navigator"
       d="m 755.68519,525.88898 c -0.8664,0.003 -1.65625,0.78982 -1.65625,1.65625 0,8.52352 -1.2e-4,19.03998 0,27.5625 7.08764,5e-5 14.16697,-6e-5 21,0 1.7e-4,-2.06277 -1.9e-4,-6.12467 0,-8.1875 23.47923,0 46.93798,0.003 70.40625,0 0.006,79.94582 0.0263,171.01916 0.0625,259.46875 -8.74443,0 -19.5135,-9.8e-4 -28.28125,0 0.002,7.01096 0.0297,14.01348 0.0312,21.03125 15.17777,-6.2e-4 32.35074,-0.004 47.53125,0 0.8665,-0.003 1.65625,-0.78982 1.65625,-1.65625 0,-99.75513 -0.1084,-198.5307 0,-298.21875 0.0145,-0.76328 -0.5661,-1.49595 -1.3125,-1.65625 -32.65954,-4e-5 -71.29082,-10e-4 -109.4375,0 z"
       id="path2996"
       inkscape:connector-curvature="0"
       sodipodi:nodetypes="csccccccccscccc" />
    <path
       inkscape:connector-curvature="0"
       style="font-size:20px;font-style:normal;font-variant:normal;font-weight:normal;font-stretch:normal;line-height:125%;letter-spacing:3.53999996px;word-spacing:0px;fill:#000000;fill-opacity:1;stroke:none;font-family:Navigator;-inkscape-font-specification:Navigator"
       d="m 708.49447,453.86693 c -7.4247,0.08 -14.14962,3.02199 -19.34375,8.375 -5.19308,5.352 -7.96875,12.16295 -7.96875,19.6875 0,7.59416 2.78673,14.48002 8.0625,19.875 5.27477,5.39399 12.09777,8.3125 19.59375,8.3125 4.83451,0 9.5044,-1.25395 13.75,-3.65625 a 4.0003998,4.0003998 0 0 0 2.03125,-3.46875 l 0,-5.75 a 4.0003998,4.0003998 0 0 0 -6.46875,-3.125 c -2.6856,2.12506 -5.50826,3.09376 -8.90625,3.09375 -4.16626,10e-6 -7.28513,-1.32433 -10.28125,-4.40625 -2.98764,-3.07316 -4.34376,-6.41512 -4.34375,-10.8125 -10e-6,-4.39733 1.35609,-7.73929 4.34375,-10.8125 2.99612,-3.08187 6.11497,-4.40621 10.28125,-4.40625 3.43368,4e-5 6.26303,0.93863 8.9375,3 a 4.0003998,4.0003998 0 0 0 6.4375,-3.15625 l 0,-5.625 a 4.0003998,4.0003998 0 0 0 -2.03125,-3.46875 c -4.24558,-2.40223 -8.91552,-3.65619 -13.75,-3.65625 l -0.3125,0 a 4.0003998,4.0003998 0 0 0 -0.0312,0 z m 53.8125,0 c -6.57067,6e-5 -12.53576,3.09723 -16.9375,8.5 -4.40764,5.41009 -6.625,12.13631 -6.625,19.5625 0,7.42624 2.19211,14.15098 6.59375,19.59375 4.39648,5.43641 10.38442,8.59375 16.96875,8.59375 6.58429,0 12.56711,-3.13147 17,-8.5625 4.43932,-5.439 6.68746,-12.18794 6.6875,-19.625 -4e-5,-7.43677 -2.24133,-14.15604 -6.6875,-19.5625 -4.43772,-5.3977 -10.42937,-8.49994 -17,-8.5 z m 42.46875,0 a 4.0003998,4.0003998 0 0 0 -3.59375,4 l 0,48.25 a 4.0003998,4.0003998 0 0 0 4,4 l 2.59375,0 2.1875,0 a 4.0003998,4.0003998 0 0 0 4,-4 l 0,-3.96875 0,-13.28125 c 5.19242,-0.0304 9.47716,-0.35697 12.65625,-1.875 0.009,-0.004 0.0226,0.004 0.0312,0 0.07,-0.0336 0.14944,-0.0591 0.21875,-0.0937 l -0.0312,-0.0312 c 3.19396,-1.35652 5.92072,-3.40239 7.9375,-6.0625 2.15896,-2.84768 3.24996,-6.34725 3.25,-10 -4e-5,-4.47471 -1.5915,-8.72593 -4.625,-11.9375 -3.0335,-3.21138 -7.22447,-4.99994 -11.65625,-5 -0.90311,5e-5 -2.36152,5e-5 -4.375,0 -2.01351,5e-5 -3.49606,5e-5 -4.46875,0 -2.98581,5e-5 -5.56551,5e-5 -7.71875,0 a 4.0003998,4.0003998 0 0 0 -0.40625,0 z m 49.7812,0 a 4.0003998,4.0003998 0 0 0 -3,6.0625 c 1.6127,2.6623 4.1751,6.86057 7.7188,12.59375 3.2794,5.3058 5.6825,9.20786 7.5312,12.21875 l 0,21.375 a 4.0003998,4.0003998 0 0 0 4,4 l 5.3125,0 a 4.0003998,4.0003998 0 0 0 4,-4 l 0,-21.34375 c 1.3526,-2.17419 6.0927,-9.90748 15.25,-24.8125 a 4.0003998,4.0003998 0 0 0 -3.4062,-6.09375 l -5.9375,0 a 4.0003998,4.0003998 0 0 0 -3.4063,1.90625 l -9.2187,15.0625 -9.0938,-15.03125 a 4.0003998,4.0003998 0 0 0 -3.4062,-1.9375 l -5.9375,0 a 4.0003998,4.0003998 0 0 0 -0.4063,0 z m -40.5937,11.96875 6.3125,0 c 1.6409,3e-5 2.61192,0.38397 3.6875,1.375 1.0018,0.92313 1.30323,1.5926 1.28125,2.9375 -2.1e-4,0.0126 2.6e-4,0.0185 0,0.0312 -0.0995,1.72959 -0.59524,2.88205 -1.65625,4.03125 -1.02623,1.11153 -1.75924,1.43752 -3.1875,1.4375 l -6.4375,0 0,-9.8125 z m -51.59375,1.25 c 3.22005,3e-5 5.43559,1.07556 7.75,3.96875 2.32431,2.9057 3.49997,6.35725 3.5,10.9375 -3e-5,4.58031 -1.17532,8.03089 -3.5,10.9375 -2.31429,2.89357 -4.5296,3.96876 -7.75,3.96875 -3.22046,10e-6 -5.43487,-1.07469 -7.75,-3.96875 -2.32497,-2.90631 -3.50001,-6.35691 -3.5,-10.9375 -10e-6,-4.58023 1.17604,-8.03278 3.5,-10.9375 2.31602,-2.89452 4.52951,-3.96872 7.75,-3.96875 z"
       id="path3126" />
  </g>
</svg>
