<?xml version="1.0" encoding="UTF-8" standalone="no"?>
<!-- Created with Inkscape (http://www.inkscape.org/) -->

<svg
   xmlns:dc="http://purl.org/dc/elements/1.1/"
   xmlns:cc="http://creativecommons.org/ns#"
   xmlns:rdf="http://www.w3.org/1999/02/22-rdf-syntax-ns#"
   xmlns:svg="http://www.w3.org/2000/svg"
   xmlns="http://www.w3.org/2000/svg"
   xmlns:sodipodi="http://sodipodi.sourceforge.net/DTD/sodipodi-0.dtd"
   xmlns:inkscape="http://www.inkscape.org/namespaces/inkscape"
   width="512"
   height="512"
   id="svg2"
   version="1.1"
   inkscape:version="0.48.5 r10040"
   sodipodi:docname="cut_columns.svg">
  <defs
     id="defs4" />
  <sodipodi:namedview
     id="base"
     pagecolor="#ffffff"
     bordercolor="#666666"
     borderopacity="1.0"
     inkscape:pageopacity="0.0"
     inkscape:pageshadow="2"
     inkscape:zoom="0.50000001"
     inkscape:cx="94.497755"
     inkscape:cy="101.66944"
     inkscape:document-units="px"
     inkscape:current-layer="layer1"
     showgrid="false"
     fit-margin-top="0"
     fit-margin-left="0"
     fit-margin-right="0"
     fit-margin-bottom="0"
     inkscape:snap-bbox="true"
     inkscape:bbox-paths="true"
     inkscape:bbox-nodes="true"
     inkscape:snap-bbox-edge-midpoints="true"
     inkscape:snap-bbox-midpoints="true"
     inkscape:object-paths="true"
     inkscape:snap-intersection-paths="true"
     inkscape:object-nodes="true"
     inkscape:snap-smooth-nodes="true"
     inkscape:snap-global="false"
     inkscape:snap-midpoints="true"
     inkscape:snap-object-midpoints="true"
     inkscape:snap-center="true"
     inkscape:snap-page="true"
     showguides="true"
     inkscape:guide-bbox="true"
     inkscape:window-width="1600"
     inkscape:window-height="837"
     inkscape:window-x="-8"
     inkscape:window-y="-8"
     inkscape:window-maximized="1" />
  <metadata
     id="metadata7">
    <rdf:RDF>
      <cc:Work
         rdf:about="">
        <dc:format>image/svg+xml</dc:format>
        <dc:type
           rdf:resource="http://purl.org/dc/dcmitype/StillImage" />
        <dc:title />
      </cc:Work>
    </rdf:RDF>
  </metadata>
  <g
     inkscape:label="Layer 1"
     inkscape:groupmode="layer"
     id="layer1"
     transform="translate(-532.57141,-402.07648)">
    <path
       style="font-size:medium;font-style:normal;font-variant:normal;font-weight:normal;font-stretch:normal;text-indent:0;text-align:start;text-decoration:none;line-height:normal;letter-spacing:normal;word-spacing:normal;text-transform:none;direction:ltr;block-progression:tb;writing-mode:lr-tb;text-anchor:start;baseline-shift:baseline;color:#000000;fill:#000000;fill-opacity:1;stroke:none;stroke-width:20;marker:none;visibility:visible;display:inline;overflow:visible;enable-background:accumulate;font-family:Sans;-inkscape-font-specification:Sans"
       d="m 245.6875,174.8125 c -0.7464,0.1603 -1.32701,0.89297 -1.3125,1.65625 l 0,17.71875 c 0.003,0.86643 0.78982,1.6534 1.65625,1.65625 l 17.6875,0 c 0.86643,-0.003 1.6534,-0.78982 1.65625,-1.65625 l 0,-17.71875 c -0.003,-0.86643 -0.78982,-1.6534 -1.65625,-1.65625 l -17.6875,0 c -0.052,-0.002 -0.10421,-0.002 -0.15625,0 -0.0624,-0.004 -0.12507,-0.004 -0.1875,0 z m 30.46875,0 c -0.7464,0.1603 -1.32701,0.89297 -1.3125,1.65625 l 0,17.71875 c 0.003,0.86643 0.78982,1.6534 1.65625,1.65625 l 17.6875,0 c 0.86643,-0.003 1.6534,-0.78982 1.65625,-1.65625 l 0,-17.71875 c -0.003,-0.86643 -0.78982,-1.6534 -1.65625,-1.65625 l -17.6875,0 c -0.052,-0.002 -0.10421,-0.002 -0.15625,0 -0.0624,-0.004 -0.12507,-0.004 -0.1875,0 z m 30.46875,0 c -0.7464,0.1603 -1.32701,0.89297 -1.3125,1.65625 l 0,17.71875 c 0.003,0.86643 0.78982,1.6534 1.65625,1.65625 l 17.6875,0 c 0.86643,-0.003 1.6534,-0.78982 1.65625,-1.65625 l 0,-17.71875 c -0.003,-0.86643 -0.78982,-1.6534 -1.65625,-1.65625 l -17.6875,0 c -0.052,-0.002 -0.10421,-0.002 -0.15625,0 -0.0624,-0.004 -0.12507,-0.004 -0.1875,0 z m 30.46875,0 c -0.7464,0.1603 -1.32701,0.89297 -1.3125,1.65625 l 0,17.71875 c 0.003,0.86643 0.78982,1.6534 1.65625,1.65625 l 17.6875,0 c 0.86643,-0.003 1.6534,-0.78982 1.65625,-1.65625 l 0,-17.71875 c -0.003,-0.86643 -0.78982,-1.6534 -1.65625,-1.65625 l -17.6875,0 c -0.052,-0.002 -0.10421,-0.002 -0.15625,0 -0.0624,-0.004 -0.12507,-0.004 -0.1875,0 z m 0,35.09375 c -0.7464,0.1603 -1.32701,0.89297 -1.3125,1.65625 l 0,17.6875 c 0.003,0.86643 0.78982,1.6534 1.65625,1.65625 l 17.6875,0 c 0.86643,-0.003 1.6534,-0.78982 1.65625,-1.65625 l 0,-17.6875 c -0.003,-0.86643 -0.78982,-1.6534 -1.65625,-1.65625 l -17.6875,0 c -0.0624,-0.004 -0.12507,-0.004 -0.1875,0 -0.052,-0.002 -0.10421,-0.002 -0.15625,0 z m 0,35.0625 c -0.7464,0.1603 -1.32701,0.89297 -1.3125,1.65625 l 0,17.6875 c 0.003,0.86643 0.78982,1.6534 1.65625,1.65625 l 17.6875,0 c 0.86643,-0.003 1.6534,-0.78982 1.65625,-1.65625 l 0,-17.6875 c -0.003,-0.86643 -0.78982,-1.6534 -1.65625,-1.65625 l -17.6875,0 c -0.0624,-0.004 -0.12507,-0.004 -0.1875,0 -0.052,-0.002 -0.10421,-0.002 -0.15625,0 z m 0,35.0625 c -0.7464,0.1603 -1.32701,0.89297 -1.3125,1.65625 l 0,17.6875 c 0.003,0.86643 0.78982,1.6534 1.65625,1.65625 l 17.6875,0 c 0.86643,-0.003 1.6534,-0.78982 1.65625,-1.65625 l 0,-17.6875 c -0.003,-0.86643 -0.78982,-1.6534 -1.65625,-1.65625 l -17.6875,0 c -0.0624,-0.004 -0.12507,-0.004 -0.1875,0 -0.052,-0.002 -0.10421,-0.002 -0.15625,0 z m 0,35.0625 c -0.7464,0.1603 -1.32701,0.89297 -1.3125,1.65625 l 0,17.6875 c 0.003,0.86643 0.78982,1.6534 1.65625,1.65625 l 17.6875,0 c 0.86643,-0.003 1.6534,-0.78982 1.65625,-1.65625 l 0,-17.6875 c -0.003,-0.86643 -0.78982,-1.6534 -1.65625,-1.65625 l -17.6875,0 c -0.0624,-0.004 -0.12507,-0.004 -0.1875,0 -0.052,-0.002 -0.10421,-0.002 -0.15625,0 z m 0,35.0625 c -0.7464,0.1603 -1.32701,0.89297 -1.3125,1.65625 l 0,17.6875 c 0.003,0.86643 0.78982,1.6534 1.65625,1.65625 l 17.6875,0 c 0.86643,-0.003 1.6534,-0.78982 1.65625,-1.65625 l 0,-17.6875 c -0.003,-0.86643 -0.78982,-1.6534 -1.65625,-1.65625 l -17.6875,0 c -0.0624,-0.004 -0.12507,-0.004 -0.1875,0 -0.052,-0.002 -0.10421,-0.002 -0.15625,0 z m 0,35.0625 c -0.7464,0.1603 -1.32701,0.89297 -1.3125,1.65625 l 0,17.6875 c 0.003,0.86643 0.78982,1.6534 1.65625,1.65625 l 17.6875,0 c 0.86643,-0.003 1.6534,-0.78982 1.65625,-1.65625 l 0,-17.6875 c -0.003,-0.86643 -0.78982,-1.6534 -1.65625,-1.65625 l -17.6875,0 c -0.0624,-0.004 -0.12507,-0.004 -0.1875,0 -0.052,-0.002 -0.10421,-0.002 -0.15625,0 z m 0,35.0625 c -0.7464,0.1603 -1.32701,0.89297 -1.3125,1.65625 l 0,17.6875 c 0.003,0.86643 0.78982,1.6534 1.65625,1.65625 l 17.6875,0 c 0.86643,-0.003 1.6534,-0.78982 1.65625,-1.65625 l 0,-17.6875 c -0.003,-0.86643 -0.78982,-1.6534 -1.65625,-1.65625 l -17.6875,0 c -0.0624,-0.004 -0.12507,-0.004 -0.1875,0 -0.052,-0.002 -0.10421,-0.002 -0.15625,0 z m -91.40625,34.375 c -0.7464,0.1603 -1.32701,0.89297 -1.3125,1.65625 l 0,18.375 c 0.003,0.86643 0.78982,1.6534 1.65625,1.65625 l 17.6875,0 c 0.86643,-0.003 1.6534,-0.78982 1.65625,-1.65625 l 0,-18.375 c -0.003,-0.86643 -0.78982,-1.6534 -1.65625,-1.65625 l -17.6875,0 c -0.052,-0.002 -0.10421,-0.002 -0.15625,0 -0.0624,-0.004 -0.12507,-0.004 -0.1875,0 z m 30.46875,0.65625 c -0.7464,0.1603 -1.32701,0.89297 -1.3125,1.65625 l 0,17.71875 c 0.003,0.86643 0.78982,1.6534 1.65625,1.65625 l 17.6875,0 c 0.86643,-0.003 1.6534,-0.78982 1.65625,-1.65625 l 0,-17.71875 c -0.003,-0.86643 -0.78982,-1.6534 -1.65625,-1.65625 l -17.6875,0 c -0.052,-0.002 -0.10421,-0.002 -0.15625,0 -0.0624,-0.004 -0.12507,-0.004 -0.1875,0 z m 30.46875,0 c -0.7464,0.1603 -1.32701,0.89297 -1.3125,1.65625 l 0,17.71875 c 0.003,0.86643 0.78982,1.6534 1.65625,1.65625 l 17.6875,0 c 0.86643,-0.003 1.6534,-0.78982 1.65625,-1.65625 l 0,-17.71875 c -0.003,-0.86643 -0.78982,-1.6534 -1.65625,-1.65625 l -17.6875,0 c -0.052,-0.002 -0.10421,-0.002 -0.15625,0 -0.0624,-0.004 -0.12507,-0.004 -0.1875,0 z m 30.46875,0.0312 c -0.7464,0.1603 -1.32701,0.89297 -1.3125,1.65625 l 0,17.6875 c 0.003,0.86643 0.78982,1.6534 1.65625,1.65625 l 17.6875,0 c 0.86643,-0.003 1.6534,-0.78982 1.65625,-1.65625 l 0,-17.6875 c -0.003,-0.86643 -0.78982,-1.6534 -1.65625,-1.65625 l -17.6875,0 c -0.0624,-0.004 -0.12507,-0.004 -0.1875,0 -0.052,-0.002 -0.10421,-0.002 -0.15625,0 z"
       transform="translate(532.57141,402.07648)"
       id="path3857"
       inkscape:connector-curvature="0"
       sodipodi:nodetypes="ccccccccccccccccccccccccccccccccccccccccccccccccccccccccccccccccccccccccccccccccccccccccccccccccccccccccccccccccccccccccccccccccccccccccccccccccccccccccccccccccccccc" />
    <path
       style="font-size:medium;font-style:normal;font-variant:normal;font-weight:normal;font-stretch:normal;text-indent:0;text-align:start;text-decoration:none;line-height:normal;letter-spacing:normal;word-spacing:normal;text-transform:none;direction:ltr;block-progression:tb;writing-mode:lr-tb;text-anchor:start;baseline-shift:baseline;color:#000000;fill:#000000;fill-opacity:1;stroke:none;stroke-width:8;marker:none;visibility:visible;display:inline;overflow:visible;enable-background:accumulate;font-family:Sans;-inkscape-font-specification:Sans"
       d="M 261.21875 203.65625 L 257.59375 210.09375 L 222.96875 271.875 L 221.59375 274.34375 L 222.96875 276.8125 L 246.78125 319.3125 L 251.28125 327.28125 L 255.625 319.25 L 283.1875 268.3125 L 283.5 267.75 L 283.65625 267.0625 C 287.31675 251.41146 285.68889 239.89758 281.5 230.90625 C 277.31112 221.91492 270.9993 215.6205 265.90625 209.375 L 261.21875 203.65625 z M 174.15625 203.6875 L 169.46875 209.4375 C 164.3757 215.683 158.03265 221.91493 153.84375 230.90625 C 149.65485 239.89758 148.05826 251.44274 151.71875 267.09375 L 151.875 267.75 L 152.1875 268.3125 L 191.375 340.75 L 191.84375 341.59375 L 192.5625 342.21875 L 234.03125 377.6875 C 228.61754 393.32812 232.76244 412.41898 245.5 427.40625 L 245.4375 427.46875 L 246 428.125 L 246.03125 428.15625 L 246.125 428.25 C 264.22687 448.84882 293.24972 454.09367 311.03125 438.21875 C 328.81262 422.34392 327.13236 392.78553 309.03125 372.1875 C 295.2646 356.52185 275.46034 349.77768 258.65625 354.40625 L 177.78125 210.125 L 174.15625 203.6875 z M 172.5625 221.40625 L 251.8125 362.84375 L 254.03125 366.75 L 258.15625 365.0625 C 270.90503 359.82779 288.91215 364.52381 301.46875 378.8125 C 316.6514 396.08947 317.13925 419.29521 304.34375 430.71875 C 291.58022 442.11371 268.96254 438.88223 253.78125 421.71875 C 253.74345 421.67585 253.69382 421.63682 253.65625 421.59375 L 253.25 421.0625 L 253.1875 421 L 253.15625 420.96875 C 241.58785 407.39564 238.98356 390.11374 244.5 378.1875 L 246.125 374.71875 L 243.21875 372.25 L 199.84375 335.1875 L 161.46875 264.28125 C 158.35651 250.58432 159.77546 242.04637 163 235.125 C 165.30308 230.18148 168.81399 225.84673 172.5625 221.40625 z M 262.84375 221.40625 C 266.59227 225.84673 270.07191 230.18147 272.375 235.125 C 275.59625 242.03931 277.00596 250.57778 273.90625 264.25 L 251.125 306.375 L 233.15625 274.34375 L 262.84375 221.40625 z M 217.625 318.75 C 215.26145 318.772 212.89395 319.69978 211.09375 321.5 C 207.44538 325.14838 207.44538 331.03913 211.09375 334.6875 C 214.74212 338.33588 220.63288 338.33588 224.28125 334.6875 C 227.92965 331.03913 227.92965 325.14838 224.28125 321.5 L 224.1875 321.375 C 222.35407 319.60863 219.98853 318.728 217.625 318.75 z M 183.21875 342.8125 L 180.0625 348.4375 L 176.71875 354.40625 C 159.91466 349.7777 140.11039 356.52182 126.34375 372.1875 C 108.24264 392.7855 106.56234 422.31268 124.34375 438.1875 C 142.12527 454.06241 171.14812 448.81759 189.25 428.21875 L 189.34375 428.15625 L 189.375 428.09375 L 189.84375 427.5 C 189.86795 427.4716 189.9137 427.43435 189.9375 427.40625 C 202.66317 412.42161 206.75527 393.29063 201.34375 377.65625 L 207.9375 371.96875 L 212.40625 368.15625 L 207.9375 364.34375 L 188.15625 347.4375 C 188.14265 347.4272 188.138 347.41795 188.125 347.40625 C 188.0452 347.33625 187.95281 347.22849 187.875 347.15625 L 183.21875 342.8125 z M 185.875 358.6875 L 196.96875 368.15625 L 192.15625 372.25 L 189.25 374.71875 L 190.875 378.1875 C 196.39142 390.11375 193.78715 407.39565 182.21875 420.96875 L 182.1875 421 L 182.15625 421.0625 L 181.71875 421.59375 L 181.59375 421.71875 C 166.41244 438.88222 143.79479 442.11373 131.03125 430.71875 C 118.23574 419.2952 118.7236 396.05821 133.90625 378.78125 C 146.46286 364.49256 164.46998 359.79654 177.21875 365.03125 L 181.34375 366.75 L 183.5625 362.8125 L 185.875 358.6875 z M 164.34375 370.875 C 162.62833 370.91132 160.88549 371.13718 159.1875 371.53125 C 152.39551 373.10754 145.65562 377.29078 140.15625 383.71875 C 134.65689 390.14672 131.39017 397.67528 130.59375 404.96875 C 129.79731 412.26225 131.59453 419.74739 136.90625 424.8125 C 142.21799 429.87761 149.45802 431.0138 156.25 429.4375 C 171.69424 424.66581 182.5941 411.54863 184.875 395.71875 C 185.60088 388.51249 183.77438 381.15596 178.53125 376.15625 C 174.54745 372.35743 169.49001 370.76603 164.34375 370.875 z M 269.75 370.875 C 265.05211 371.03749 260.49556 372.674 256.84375 376.15625 C 251.60062 381.15596 249.77412 388.51249 250.5 395.71875 C 252.7809 411.54863 263.68076 424.66581 279.125 429.4375 C 285.91698 431.0138 293.15701 429.87761 298.46875 424.8125 C 303.78047 419.74739 305.57769 412.26225 304.78125 404.96875 C 303.98483 397.67528 300.71811 390.14672 295.21875 383.71875 C 289.71938 377.29078 282.97949 373.10754 276.1875 371.53125 C 274.06501 371.03866 271.88541 370.80114 269.75 370.875 z M 165.46875 378.5 C 168.99876 378.39474 171.91437 379.44872 174 381.4375 C 176.74307 384.05322 178.11883 388.35184 177.5625 393.875 C 177.00614 399.39818 174.39193 405.77713 169.78125 411.3125 L 169.46875 411.6875 C 164.72559 417.23162 158.91106 420.75645 153.6875 421.96875 C 148.46395 423.18105 144.21835 422.1517 141.4375 419.5 C 138.65668 416.84827 137.29373 412.48426 137.90625 406.875 C 138.51876 401.26575 141.22558 394.79411 145.96875 389.25 C 150.71192 383.70591 156.52646 380.2123 161.75 379 C 163.05589 378.69693 164.29208 378.53509 165.46875 378.5 z M 269.90625 378.5 C 271.08292 378.53509 272.31911 378.69693 273.625 379 C 278.84854 380.2123 284.66308 383.70591 289.40625 389.25 C 294.14942 394.79411 296.88749 401.26575 297.5 406.875 C 298.11252 412.48426 296.71832 416.84827 293.9375 419.5 C 291.15665 422.1517 286.91105 423.18105 281.6875 421.96875 C 276.46394 420.75645 270.64941 417.23162 265.90625 411.6875 L 265.59375 411.3125 C 260.98307 405.77713 258.36886 399.39818 257.8125 393.875 C 257.25617 388.35184 258.63193 384.05322 261.375 381.4375 C 263.46063 379.44872 266.37624 378.39474 269.90625 378.5 z "
       transform="translate(532.57141,402.07648)"
       id="path3927" />
    <path
       inkscape:connector-curvature="0"
       style="font-size:20px;font-style:normal;font-variant:normal;font-weight:normal;font-stretch:normal;line-height:125%;letter-spacing:3.53999996px;word-spacing:0px;fill:#000000;fill-opacity:1;stroke:none;font-family:Navigator;-inkscape-font-specification:Navigator"
       d="m 734.33703,461.15709 c -7.4247,0.08 -14.14962,3.02199 -19.34375,8.375 -5.19308,5.352 -7.96875,12.16294 -7.96875,19.6875 0,7.59416 2.78673,14.48002 8.0625,19.875 5.27477,5.39399 12.09777,8.3125 19.59375,8.3125 4.83451,0 9.5044,-1.25395 13.75,-3.65625 a 4.0003998,4.0003998 0 0 0 2.03125,-3.46875 l 0,-5.75 a 4.0003998,4.0003998 0 0 0 -6.46875,-3.125 c -2.6856,2.12506 -5.50826,3.09376 -8.90625,3.09375 -4.16626,1e-5 -7.28513,-1.32433 -10.28125,-4.40625 -2.98764,-3.07316 -4.34376,-6.41512 -4.34375,-10.8125 -10e-6,-4.39733 1.35609,-7.73929 4.34375,-10.8125 2.99612,-3.08188 6.11497,-4.40622 10.28125,-4.40625 3.43368,3e-5 6.26303,0.93863 8.9375,3 a 4.0003998,4.0003998 0 0 0 6.4375,-3.15625 l 0,-5.625 a 4.0003998,4.0003998 0 0 0 -2.03125,-3.46875 c -4.24558,-2.40223 -8.91552,-3.65619 -13.75,-3.65625 l -0.3125,0 a 4.0003998,4.0003998 0 0 0 -0.0312,0 z m 34.5625,0 a 4.0003998,4.0003998 0 0 0 -3.59375,4 l 0,28.25 c 0,6.53878 2.39565,12.52068 6.9375,17.0625 4.4593,4.45932 10.05783,6.9375 16.03125,6.9375 5.97338,0 11.54497,-2.4914 16.03125,-6.9375 4.57712,-4.5362 7.0312,-10.5106 7.03125,-17.0625 l 0,-28.25 a 4.0003998,4.0003998 0 0 0 -4,-4 l -4.5,0 a 4.0003998,4.0003998 0 0 0 -4,3.9375 l -0.40625,28.25 a 4.0003998,4.0003998 0 0 0 0,0.0625 c -3e-5,3.26622 -0.92881,5.5274 -3.0625,7.6875 -2.18188,2.20885 -4.28886,3.09376 -7.0625,3.09375 -2.7737,1e-5 -4.92487,-0.88966 -7.1875,-3.125 -2.19146,-2.16499 -3.12501,-4.40553 -3.125,-7.65625 a 4.0003998,4.0003998 0 0 0 0,-0.0312 l -0.3125,-28.25 a 4.0003998,4.0003998 0 0 0 -4,-3.96875 l -4.375,0 a 4.0003998,4.0003998 0 0 0 -0.40625,0 z m 60.375,0 a 4.0003998,4.0003998 0 0 0 -3.59375,4 l 0,5.3125 a 4.0003998,4.0003998 0 0 0 4,4 l 11.625,0 0,38.9375 a 4.0003998,4.0003998 0 0 0 4,4 l 5.3125,0 a 4.0003998,4.0003998 0 0 0 4,-4 l 0,-38.9375 11.5,0 a 4.0003998,4.0003998 0 0 0 4,-4 l 0,-5.3125 a 4.0003998,4.0003998 0 0 0 -4,-4 l -15.5,0 -5.3125,0 -15.625,0 a 4.0003998,4.0003998 0 0 0 -0.40625,0 z"
       id="path3114" />
  </g>
</svg>
