<?xml version="1.0" encoding="UTF-8" standalone="no"?>
<!-- Created with Inkscape (http://www.inkscape.org/) -->

<svg
   xmlns:dc="http://purl.org/dc/elements/1.1/"
   xmlns:cc="http://creativecommons.org/ns#"
   xmlns:rdf="http://www.w3.org/1999/02/22-rdf-syntax-ns#"
   xmlns:svg="http://www.w3.org/2000/svg"
   xmlns="http://www.w3.org/2000/svg"
   xmlns:sodipodi="http://sodipodi.sourceforge.net/DTD/sodipodi-0.dtd"
   xmlns:inkscape="http://www.inkscape.org/namespaces/inkscape"
   width="512"
   height="512"
   id="svg2"
   version="1.1"
   inkscape:version="0.48.5 r10040"
   sodipodi:docname="paste_columns.svg">
  <defs
     id="defs4" />
  <sodipodi:namedview
     id="base"
     pagecolor="#ffffff"
     bordercolor="#666666"
     borderopacity="1.0"
     inkscape:pageopacity="0.0"
     inkscape:pageshadow="2"
     inkscape:zoom="0.5"
     inkscape:cx="4.2212048"
     inkscape:cy="345.13931"
     inkscape:document-units="px"
     inkscape:current-layer="layer1"
     showgrid="false"
     fit-margin-top="0"
     fit-margin-left="0"
     fit-margin-right="0"
     fit-margin-bottom="0"
     inkscape:snap-bbox="true"
     inkscape:bbox-paths="true"
     inkscape:bbox-nodes="true"
     inkscape:snap-bbox-edge-midpoints="true"
     inkscape:snap-bbox-midpoints="true"
     inkscape:object-paths="true"
     inkscape:snap-intersection-paths="true"
     inkscape:object-nodes="true"
     inkscape:snap-smooth-nodes="true"
     inkscape:snap-global="false"
     inkscape:snap-midpoints="true"
     inkscape:snap-object-midpoints="true"
     inkscape:snap-center="true"
     inkscape:snap-page="true"
     showguides="true"
     inkscape:guide-bbox="true"
     inkscape:window-width="1600"
     inkscape:window-height="837"
     inkscape:window-x="-8"
     inkscape:window-y="-8"
     inkscape:window-maximized="1" />
  <metadata
     id="metadata7">
    <rdf:RDF>
      <cc:Work
         rdf:about="">
        <dc:format>image/svg+xml</dc:format>
        <dc:type
           rdf:resource="http://purl.org/dc/dcmitype/StillImage" />
        <dc:title />
      </cc:Work>
    </rdf:RDF>
  </metadata>
  <g
     inkscape:label="Layer 1"
     inkscape:groupmode="layer"
     id="layer1"
     transform="translate(-532.57141,-402.07648)">
    <path
       style="font-size:medium;font-style:normal;font-variant:normal;font-weight:normal;font-stretch:normal;text-indent:0;text-align:start;text-decoration:none;line-height:normal;letter-spacing:normal;word-spacing:normal;text-transform:none;direction:ltr;block-progression:tb;writing-mode:lr-tb;text-anchor:start;baseline-shift:baseline;color:#000000;fill:#000000;fill-opacity:1;stroke:none;stroke-width:19.99999809;marker:none;visibility:visible;display:inline;overflow:visible;enable-background:accumulate;font-family:Sans;-inkscape-font-specification:Sans"
       d="M 152.03125 11.3125 C 149.41333 11.31277 146.8199 12.39885 144.96875 14.25 C 143.11759 16.10116 142.03151 18.69458 142.03125 21.3125 L 142.03125 29.0625 L 70.03125 29.0625 C 55.24622 29.0625 43.03125 41.27747 43.03125 56.0625 L 43.03125 399.59375 C 43.03125 414.37878 55.24622 426.59375 70.03125 426.59375 L 228.3125 426.59375 C 228.3145 419.92918 228.34155 413.25395 228.34375 406.59375 L 70.03125 406.59375 C 65.98028 406.59375 63.03125 403.64472 63.03125 399.59375 L 63.03125 56.0625 C 63.03125 52.01153 65.98028 49.0625 70.03125 49.0625 L 142.03125 49.0625 L 142.03125 66.3125 L 90.53125 66.3125 C 87.91333 66.31276 85.31991 67.39885 83.46875 69.25 C 81.6176 71.10115 80.53151 73.69458 80.53125 76.3125 L 80.53125 383.3125 C 80.53151 385.93042 81.6176 388.52384 83.46875 390.375 C 85.31991 392.22615 87.91333 393.31224 90.53125 393.3125 L 228.34375 393.3125 C 228.34575 386.65457 228.34175 379.96795 228.34375 373.3125 L 100.53125 373.3125 L 100.53125 86.3125 L 142.03125 86.3125 L 142.03125 92.3125 C 142.03151 94.93042 143.11759 97.52385 144.96875 99.375 C 146.8199 101.22616 149.41333 102.31224 152.03125 102.3125 L 279.03125 102.3125 C 281.64918 102.31224 284.2426 101.22616 286.09375 99.375 C 287.9449 97.52385 289.03099 94.93042 289.03125 92.3125 L 289.03125 86.3125 L 330.53125 86.3125 L 330.53125 172.34375 C 337.43699 172.34376 343.55805 172.34366 350.53125 172.34375 L 350.53125 76.3125 C 350.53099 73.69458 349.4449 71.10115 347.59375 69.25 C 345.7426 67.39885 343.14918 66.31276 340.53125 66.3125 L 289.03125 66.3125 L 289.03125 49.0625 L 361.03125 49.0625 C 365.08222 49.0625 368.03125 52.01153 368.03125 56.0625 L 368.03125 172.4375 L 388.03125 172.375 L 388.03125 56.09375 C 388.03125 41.30872 375.81628 29.09375 361.03125 29.09375 L 289.03125 29.09375 L 289.03125 21.34375 C 289.03099 18.72583 287.9449 16.1324 286.09375 14.28125 C 284.2426 12.4301 281.64918 11.34401 279.03125 11.34375 L 152.03125 11.34375 L 152.03125 11.3125 z M 160.25 26.59375 L 270.8125 26.59375 L 270.8125 86.84375 L 160.25 86.84375 L 160.25 26.59375 z "
       transform="translate(532.57141,402.07648)"
       id="path3023" />
    <path
       style="font-size:medium;font-style:normal;font-variant:normal;font-weight:normal;font-stretch:normal;text-indent:0;text-align:start;text-decoration:none;line-height:normal;letter-spacing:normal;word-spacing:normal;text-transform:none;direction:ltr;block-progression:tb;writing-mode:lr-tb;text-anchor:start;baseline-shift:baseline;color:#000000;fill:#000000;fill-opacity:1;stroke:none;stroke-width:19.99999809;marker:none;visibility:visible;display:inline;overflow:visible;enable-background:accumulate;font-family:Sans;-inkscape-font-specification:Sans"
       d="M 256.40625 199.125 C 255.65985 199.2853 255.07925 200.01797 255.09375 200.78125 C 255.20205 300.4693 255.09375 399.24487 255.09375 499 C 255.09375 499.86643 255.8836 500.6534 256.75 500.65625 C 293.1229 500.64615 329.48835 500.65625 365.84375 500.65625 C 366.71015 500.65325 367.4972 499.86643 367.5 499 C 367.49 399.5734 367.5 300.21702 367.5 200.78125 C 367.5 199.91482 366.71015 199.12785 365.84375 199.125 C 327.69695 199.124 289.06585 199.12496 256.40625 199.125 z M 276.09375 220.15625 C 299.56205 220.15925 323.0208 220.15625 346.5 220.15625 C 346.51 306.65979 346.5 393.11026 346.5 479.625 C 323.0608 479.633 299.47785 479.625 276.03125 479.625 C 276.07225 479.48828 276.09375 479.33191 276.09375 479.1875 C 275.99185 395.78201 276.09375 307.04182 276.09375 220.15625 z "
       transform="translate(532.57141,402.07648)"
       id="path3009" />
    <g
       id="g3808"
       inkscape:label="Layer 1"
       transform="translate(-1212.8427,66.431336)"
       style="fill:#ff00ff" />
    <path
       style="font-size:20px;font-style:normal;font-variant:normal;font-weight:normal;font-stretch:normal;line-height:125%;letter-spacing:3.53999996px;word-spacing:0px;fill:#000000;fill-opacity:1;stroke:none;font-family:Navigator;-inkscape-font-specification:Navigator"
       d="m 953.48444,439.07826 a 4.0003998,4.0003998 0 0 0 -3.59375,4 l 0,48.25 a 4.0003998,4.0003998 0 0 0 4,4 l 2.59375,0 2.1875,0 a 4.0003998,4.0003998 0 0 0 4,-4 l 0,-3.96875 0,-13.28125 c 5.1869,-0.0317 9.4549,-0.36099 12.625,-1.875 0.01,-0.004 0.0233,0.004 0.0312,0 0.07,-0.0335 0.14965,-0.0593 0.21875,-0.0937 l -0.0312,-0.0312 c 3.1859,-1.352 5.93755,-3.38327 7.96875,-6.0625 2.159,-2.84768 3.25,-6.34725 3.25,-10 0,-4.47471 -1.5915,-8.72593 -4.625,-11.9375 -3.0335,-3.21138 -7.22445,-4.99994 -11.65625,-5 -0.9031,5e-5 -2.3615,5e-5 -4.375,0 -2.0135,5e-5 -3.5273,5e-5 -4.5,0 -2.9858,5e-5 -5.5343,5e-5 -7.6875,0 a 4.0003998,4.0003998 0 0 0 -0.40625,0 z m 9.1875,11.96875 6.3125,0 c 1.6409,3e-5 2.612,0.38396 3.6875,1.375 1.0018,0.92313 1.30325,1.5926 1.28125,2.9375 -2e-4,0.0126 3e-4,0.0186 0,0.0312 -0.1,1.72959 -0.59515,2.88205 -1.65625,4.03125 -1.0093,1.09323 -1.79055,1.43752 -3.21875,1.4375 l -6.40625,0 0,-9.8125 z"
       id="path3001"
       inkscape:connector-curvature="0" />
    <path
       inkscape:connector-curvature="0"
       style="font-size:20px;font-style:normal;font-variant:normal;font-weight:normal;font-stretch:normal;line-height:125%;letter-spacing:3.53999996px;word-spacing:0px;fill:#000000;fill-opacity:1;stroke:none;font-family:Navigator;-inkscape-font-specification:Navigator"
       d="m 965.25011,520.17126 a 4.0003998,4.0003998 0 0 0 -3.3125,2.5 c -2.0932,5.16136 -5.2596,13.13941 -9.5313,23.90625 -4.268,10.75762 -7.5327,18.87179 -9.75,24.34375 a 4.0003998,4.0003998 0 0 0 3.7188,5.5 l 4.8125,0 a 4.0003998,4.0003998 0 0 0 3.7187,-2.53125 l 4.625,-11.75 17.5625,0 4.625,11.75 a 4.0003998,4.0003998 0 0 0 3.71879,2.53125 l 4.8125,0 a 4.0003998,4.0003998 0 0 0 3.71866,-5.5 C 989.8029,560.50589 983.3677,544.43781 974.68761,522.70251 a 4.0003998,4.0003998 0 0 0 -3.7188,-2.53125 l -5.3125,0 a 4.0003998,4.0003998 0 0 0 -0.4062,0 z m 3.0312,20.0625 c 0.3275,0.81339 0.418,1.00131 0.7813,1.90625 1.1635,2.8985 1.7986,4.52657 2.6562,6.6875 l -6.8437,0 c 0.6792,-1.70074 2.0995,-5.28656 3.4062,-8.59375 z"
       id="path3056" />
    <path
       inkscape:connector-curvature="0"
       style="font-size:20px;font-style:normal;font-variant:normal;font-weight:normal;font-stretch:normal;line-height:125%;letter-spacing:3.53999996px;word-spacing:0px;fill:#000000;fill-opacity:1;stroke:none;font-family:Navigator;-inkscape-font-specification:Navigator"
       d="m 969.20328,601.25919 c -2.4326,6e-5 -4.7951,0.37299 -7,1.09375 -2.2105,0.72269 -4.2415,1.80098 -6,3.28125 -1.7546,1.47711 -3.1639,3.31304 -4.1563,5.34375 -1.06,2.16935 -1.5312,4.55978 -1.5312,7 0,2.18516 0.3188,4.28159 1.1562,6.21875 0.7528,1.74142 1.8223,3.33928 3.2188,4.6875 1.3781,1.33054 3.0123,2.38082 4.8125,3.28125 1.6654,0.83308 3.4952,1.61876 5.5,2.40625 0.014,0.006 0.017,0.0256 0.031,0.0312 1.4612,0.5987 2.783,1.17743 4,1.71875 1.0072,0.44805 1.7815,0.9192 2.3125,1.34375 0.4479,0.35814 0.6847,0.66748 0.875,1.0625 0.1216,0.2524 0.2812,0.81351 0.2812,1.75 0,0.71033 -0.1229,1.21403 -0.3125,1.65625 -0.1768,0.41254 -0.4427,0.78505 -0.8437,1.15625 -0.3574,0.32648 -0.8156,0.63971 -1.5938,0.90625 -0.7392,0.25322 -1.6729,0.40626 -2.75,0.40625 -0.6091,10e-6 -1.4102,-0.0764 -2.4062,-0.28125 -1.0646,-0.21897 -2.0551,-0.48636 -2.9688,-0.78125 -0.9654,-0.31159 -1.8489,-0.63996 -2.625,-1 -0.8019,-0.37202 -1.404,-0.70627 -1.8437,-1 a 4.0003998,4.0003998 0 0 0 -6.2188,3.3125 l 0,5.625 a 4.0003998,4.0003998 0 0 0 1.5313,3.15625 c 0.9842,0.76702 2.1078,1.34902 3.3125,1.8125 1.0407,0.4004 2.1409,0.78147 3.3125,1.09375 1.2501,0.33322 2.5551,0.56017 3.9062,0.71875 1.307,0.1534 2.6384,0.25 4,0.25 2.8341,0 5.4604,-0.42962 7.8438,-1.3125 2.2915,-0.84887 4.3837,-2.0563 6.0937,-3.71875 1.6614,-1.61516 2.9585,-3.57097 3.7813,-5.71875 0.817,-2.13277 1.1874,-4.43941 1.1875,-6.8125 -10e-5,-2.19031 -0.3136,-4.25788 -1.0625,-6.15625 -0.7151,-1.81226 -1.7855,-3.47293 -3.1563,-4.84375 -1.3255,-1.3255 -2.918,-2.42326 -4.6562,-3.375 -1.6203,-0.88705 -3.4162,-1.75141 -5.4063,-2.5625 -1.337,-0.53455 -2.6609,-1.02644 -3.9375,-1.5 -1.063,-0.4723 -1.9603,-0.98396 -2.6875,-1.46875 -0.4956,-0.33039 -0.7702,-0.60707 -1.0312,-1.03125 -0.1426,-0.23176 -0.25,-0.49008 -0.25,-1.125 0,-0.57912 0.09,-1.0755 0.2812,-1.5625 0.1591,-0.40482 0.3307,-0.62063 0.625,-0.875 0.3314,-0.28629 0.8597,-0.62789 1.625,-0.90625 0.6335,-0.23038 1.4545,-0.37497 2.5313,-0.375 0.7548,3e-5 1.547,0.0687 2.4062,0.1875 0.8945,0.12371 1.7577,0.26771 2.5625,0.46875 0.8041,0.20092 1.5131,0.43595 2.1563,0.6875 0.7721,0.30207 1.4346,0.57469 1.9687,0.8125 a 4.0003998,4.0003998 0 0 0 5.625,-3.65625 l 0,-5.53125 a 4.0003998,4.0003998 0 0 0 -2.4687,-3.6875 c -0.9351,-0.3901 -1.8131,-0.72174 -2.6875,-1 -0.996,-0.31678 -1.9959,-0.52505 -2.9688,-0.6875 -0.9666,-0.16128 -1.9831,-0.29783 -3.0312,-0.375 -0.9898,-0.0728 -2.0985,-0.12494 -3.3438,-0.125 z"
       id="path3054" />
    <path
       inkscape:connector-curvature="0"
       style="font-size:20px;font-style:normal;font-variant:normal;font-weight:normal;font-stretch:normal;line-height:125%;letter-spacing:3.53999996px;word-spacing:0px;fill:#000000;fill-opacity:1;stroke:none;font-family:Navigator;-inkscape-font-specification:Navigator"
       d="m 950.07818,682.347 a 4.0003998,4.0003998 0 0 0 -4,4 l 0,5.3125 a 4.0003998,4.0003998 0 0 0 4,4 l 11.625,0 0,38.9375 a 4.0003998,4.0003998 0 0 0 4,4 l 5.3125,0 a 4.0003998,4.0003998 0 0 0 4,-4 l 0,-38.9375 11.5312,0 a 4.0003998,4.0003998 0 0 0 4,-4 l 0,-5.3125 a 4.0003998,4.0003998 0 0 0 -4,-4 l -15.5312,0 -5.3125,0 -15.625,0 z"
       id="path3052" />
    <path
       inkscape:connector-curvature="0"
       style="font-size:20px;font-style:normal;font-variant:normal;font-weight:normal;font-stretch:normal;line-height:125%;letter-spacing:3.53999996px;word-spacing:0px;fill:#000000;fill-opacity:1;stroke:none;font-family:Navigator;-inkscape-font-specification:Navigator"
       d="m 954.40628,763.43484 a 4.0003998,4.0003998 0 0 0 -4,4 l 0,48.25 a 4.0003998,4.0003998 0 0 0 4,4 l 27.8125,0 a 4.0003998,4.0003998 0 0 0 4,-4 l 0,-5.3125 a 4.0003998,4.0003998 0 0 0 -4,-4 l -18.0625,0 0,-8.15625 14.4375,0 a 4.0003998,4.0003998 0 0 0 4,-4 l 0,-5.3125 a 4.0003998,4.0003998 0 0 0 -4,-4 l -14.4375,0 0,-8.15625 18.0625,0 a 4.0003998,4.0003998 0 0 0 4,-4 l 0,-5.3125 a 4.0003998,4.0003998 0 0 0 -4,-4 l -27.8125,0 z"
       id="path3050" />
  </g>
</svg>
