<?xml version="1.0" encoding="UTF-8" standalone="no"?>
<!-- Created with Inkscape (http://www.inkscape.org/) -->

<svg
   xmlns:dc="http://purl.org/dc/elements/1.1/"
   xmlns:cc="http://creativecommons.org/ns#"
   xmlns:rdf="http://www.w3.org/1999/02/22-rdf-syntax-ns#"
   xmlns:svg="http://www.w3.org/2000/svg"
   xmlns="http://www.w3.org/2000/svg"
   xmlns:sodipodi="http://sodipodi.sourceforge.net/DTD/sodipodi-0.dtd"
   xmlns:inkscape="http://www.inkscape.org/namespaces/inkscape"
   width="512"
   height="512"
   id="svg2"
   version="1.1"
   inkscape:version="0.48.5 r10040"
   sodipodi:docname="remove_columns.svg">
  <defs
     id="defs4" />
  <sodipodi:namedview
     id="base"
     pagecolor="#ffffff"
     bordercolor="#666666"
     borderopacity="1.0"
     inkscape:pageopacity="0.0"
     inkscape:pageshadow="2"
     inkscape:zoom="0.7071068"
     inkscape:cx="148.47785"
     inkscape:cy="158.1763"
     inkscape:document-units="px"
     inkscape:current-layer="layer1"
     showgrid="false"
     fit-margin-top="0"
     fit-margin-left="0"
     fit-margin-right="0"
     fit-margin-bottom="0"
     inkscape:snap-bbox="true"
     inkscape:bbox-paths="true"
     inkscape:bbox-nodes="true"
     inkscape:snap-bbox-edge-midpoints="true"
     inkscape:snap-bbox-midpoints="true"
     inkscape:object-paths="true"
     inkscape:snap-intersection-paths="true"
     inkscape:object-nodes="true"
     inkscape:snap-smooth-nodes="true"
     inkscape:snap-global="false"
     inkscape:snap-midpoints="true"
     inkscape:snap-object-midpoints="true"
     inkscape:snap-center="true"
     inkscape:snap-page="true"
     showguides="true"
     inkscape:guide-bbox="true"
     inkscape:window-width="1600"
     inkscape:window-height="837"
     inkscape:window-x="-8"
     inkscape:window-y="-8"
     inkscape:window-maximized="1" />
  <metadata
     id="metadata7">
    <rdf:RDF>
      <cc:Work
         rdf:about="">
        <dc:format>image/svg+xml</dc:format>
        <dc:type
           rdf:resource="http://purl.org/dc/dcmitype/StillImage" />
        <dc:title />
      </cc:Work>
    </rdf:RDF>
  </metadata>
  <g
     inkscape:label="Layer 1"
     inkscape:groupmode="layer"
     id="layer1"
     transform="translate(-532.57141,-402.07648)">
    <path
       style="font-size:medium;font-style:normal;font-variant:normal;font-weight:normal;font-stretch:normal;text-indent:0;text-align:start;text-decoration:none;line-height:normal;letter-spacing:normal;word-spacing:normal;text-transform:none;direction:ltr;block-progression:tb;writing-mode:lr-tb;text-anchor:start;baseline-shift:baseline;color:#000000;fill:#000000;fill-opacity:1;stroke:none;stroke-width:20;marker:none;visibility:visible;display:inline;overflow:visible;enable-background:accumulate;font-family:Sans;-inkscape-font-specification:Sans"
       d="M 39.1875 172.53125 A 3.9556616 3.9556616 0 0 0 35.21875 176.46875 L 35.21875 185.3125 L 35.21875 465.84375 L 35.21875 474.6875 A 3.9556616 3.9556616 0 0 0 39.1875 478.625 L 48.03125 478.625 L 130.5625 478.625 L 139.40625 478.625 L 148.28125 478.625 L 230.8125 478.625 L 322.1875 478.625 L 331.03125 478.625 A 3.9556616 3.9556616 0 0 0 335 474.6875 L 335 465.84375 L 335 185.3125 L 335 176.46875 A 3.9556616 3.9556616 0 0 0 331.03125 172.53125 L 322.1875 172.53125 L 230.8125 172.53125 L 148.28125 172.53125 L 139.40625 172.53125 L 130.5625 172.53125 L 48.03125 172.53125 L 39.1875 172.53125 z M 60.8125 198.125 L 126.625 198.125 L 126.625 453.03125 L 60.8125 453.03125 L 60.8125 198.125 z M 152.21875 198.125 L 218.03125 198.125 L 218.03125 453.03125 L 152.21875 453.03125 L 152.21875 198.125 z M 243.625 198.125 L 309.40625 198.125 L 309.40625 453.03125 L 243.625 453.03125 L 243.625 198.125 z "
       transform="translate(532.57141,402.07648)"
       id="path3042" />
    <path
       style="font-size:medium;font-style:normal;font-variant:normal;font-weight:normal;font-stretch:normal;text-indent:0;text-align:start;text-decoration:none;line-height:normal;letter-spacing:normal;word-spacing:normal;text-transform:none;direction:ltr;block-progression:tb;writing-mode:lr-tb;text-anchor:start;baseline-shift:baseline;color:#000000;fill:#000000;fill-opacity:1;stroke:none;stroke-width:20;marker:none;visibility:visible;display:inline;overflow:visible;enable-background:accumulate;font-family:Sans;-inkscape-font-specification:Sans"
       d="m 898.25891,576.88898 a 1.6617162,1.6617162 0 0 0 -1.3125,1.65625 l 0,17.71875 a 1.6617162,1.6617162 0 0 0 1.65625,1.65625 l 17.6875,0 a 1.6617162,1.6617162 0 0 0 1.65625,-1.65625 l 0,-17.71875 a 1.6617162,1.6617162 0 0 0 -1.65625,-1.65625 l -17.6875,0 a 1.6617162,1.6617162 0 0 0 -0.15625,0 1.6617162,1.6617162 0 0 0 -0.1875,0 z"
       id="path3040" />
    <path
       style="font-size:medium;font-style:normal;font-variant:normal;font-weight:normal;font-stretch:normal;text-indent:0;text-align:start;text-decoration:none;line-height:normal;letter-spacing:normal;word-spacing:normal;text-transform:none;direction:ltr;block-progression:tb;writing-mode:lr-tb;text-anchor:start;baseline-shift:baseline;color:#000000;fill:#000000;fill-opacity:1;stroke:none;stroke-width:20;marker:none;visibility:visible;display:inline;overflow:visible;enable-background:accumulate;font-family:Sans;-inkscape-font-specification:Sans"
       d="m 928.72766,576.88898 a 1.6617162,1.6617162 0 0 0 -1.3125,1.65625 l 0,17.71875 a 1.6617162,1.6617162 0 0 0 1.65625,1.65625 l 17.6875,0 a 1.6617162,1.6617162 0 0 0 1.65625,-1.65625 l 0,-17.71875 a 1.6617162,1.6617162 0 0 0 -1.65625,-1.65625 l -17.6875,0 a 1.6617162,1.6617162 0 0 0 -0.15625,0 1.6617162,1.6617162 0 0 0 -0.1875,0 z"
       id="path3038" />
    <path
       style="font-size:medium;font-style:normal;font-variant:normal;font-weight:normal;font-stretch:normal;text-indent:0;text-align:start;text-decoration:none;line-height:normal;letter-spacing:normal;word-spacing:normal;text-transform:none;direction:ltr;block-progression:tb;writing-mode:lr-tb;text-anchor:start;baseline-shift:baseline;color:#000000;fill:#000000;fill-opacity:1;stroke:none;stroke-width:20;marker:none;visibility:visible;display:inline;overflow:visible;enable-background:accumulate;font-family:Sans;-inkscape-font-specification:Sans"
       d="m 959.19641,576.88898 a 1.6617162,1.6617162 0 0 0 -1.3125,1.65625 l 0,17.71875 a 1.6617162,1.6617162 0 0 0 1.65625,1.65625 l 17.6875,0 a 1.6617162,1.6617162 0 0 0 1.65625,-1.65625 l 0,-17.71875 a 1.6617162,1.6617162 0 0 0 -1.65625,-1.65625 l -17.6875,0 a 1.6617162,1.6617162 0 0 0 -0.15625,0 1.6617162,1.6617162 0 0 0 -0.1875,0 z"
       id="path3036" />
    <path
       style="font-size:medium;font-style:normal;font-variant:normal;font-weight:normal;font-stretch:normal;text-indent:0;text-align:start;text-decoration:none;line-height:normal;letter-spacing:normal;word-spacing:normal;text-transform:none;direction:ltr;block-progression:tb;writing-mode:lr-tb;text-anchor:start;baseline-shift:baseline;color:#000000;fill:#000000;fill-opacity:1;stroke:none;stroke-width:20;marker:none;visibility:visible;display:inline;overflow:visible;enable-background:accumulate;font-family:Sans;-inkscape-font-specification:Sans"
       d="m 989.66516,576.88898 a 1.6617162,1.6617162 0 0 0 -1.3125,1.65625 l 0,17.71875 a 1.6617162,1.6617162 0 0 0 1.65625,1.65625 l 17.68749,0 a 1.6617162,1.6617162 0 0 0 1.6563,-1.65625 l 0,-17.71875 a 1.6617162,1.6617162 0 0 0 -1.6563,-1.65625 l -17.68749,0 a 1.6617162,1.6617162 0 0 0 -0.15625,0 1.6617162,1.6617162 0 0 0 -0.1875,0 z"
       id="path3034" />
    <path
       style="font-size:medium;font-style:normal;font-variant:normal;font-weight:normal;font-stretch:normal;text-indent:0;text-align:start;text-decoration:none;line-height:normal;letter-spacing:normal;word-spacing:normal;text-transform:none;direction:ltr;block-progression:tb;writing-mode:lr-tb;text-anchor:start;baseline-shift:baseline;color:#000000;fill:#000000;fill-opacity:1;stroke:none;stroke-width:20;marker:none;visibility:visible;display:inline;overflow:visible;enable-background:accumulate;font-family:Sans;-inkscape-font-specification:Sans"
       d="m 898.25891,611.88898 a 1.6617162,1.6617162 0 0 0 -1.3125,1.65625 l 0,17.6875 a 1.6617162,1.6617162 0 0 0 1.65625,1.65625 l 17.6875,0 a 1.6617162,1.6617162 0 0 0 1.65625,-1.65625 l 0,-17.6875 a 1.6617162,1.6617162 0 0 0 -1.65625,-1.65625 l -17.6875,0 a 1.6617162,1.6617162 0 0 0 -0.15625,0 1.6617162,1.6617162 0 0 0 -0.1875,0 z"
       id="path3026" />
    <path
       style="font-size:medium;font-style:normal;font-variant:normal;font-weight:normal;font-stretch:normal;text-indent:0;text-align:start;text-decoration:none;line-height:normal;letter-spacing:normal;word-spacing:normal;text-transform:none;direction:ltr;block-progression:tb;writing-mode:lr-tb;text-anchor:start;baseline-shift:baseline;color:#000000;fill:#000000;fill-opacity:1;stroke:none;stroke-width:20;marker:none;visibility:visible;display:inline;overflow:visible;enable-background:accumulate;font-family:Sans;-inkscape-font-specification:Sans"
       d="m 989.66516,611.98273 a 1.6617162,1.6617162 0 0 0 -1.3125,1.65625 l 0,17.6875 a 1.6617162,1.6617162 0 0 0 1.65625,1.65625 l 17.68749,0 a 1.6617162,1.6617162 0 0 0 1.6563,-1.65625 l 0,-17.6875 a 1.6617162,1.6617162 0 0 0 -1.6563,-1.65625 l -17.68749,0 a 1.6617162,1.6617162 0 0 0 -0.1875,0 1.6617162,1.6617162 0 0 0 -0.15625,0 z"
       id="path3024" />
    <path
       style="font-size:medium;font-style:normal;font-variant:normal;font-weight:normal;font-stretch:normal;text-indent:0;text-align:start;text-decoration:none;line-height:normal;letter-spacing:normal;word-spacing:normal;text-transform:none;direction:ltr;block-progression:tb;writing-mode:lr-tb;text-anchor:start;baseline-shift:baseline;color:#000000;fill:#000000;fill-opacity:1;stroke:none;stroke-width:20;marker:none;visibility:visible;display:inline;overflow:visible;enable-background:accumulate;font-family:Sans;-inkscape-font-specification:Sans"
       d="m 898.25891,646.85773 a 1.6617162,1.6617162 0 0 0 -1.3125,1.65625 l 0,17.6875 a 1.6617162,1.6617162 0 0 0 1.65625,1.65625 l 17.6875,0 a 1.6617162,1.6617162 0 0 0 1.65625,-1.65625 l 0,-17.6875 a 1.6617162,1.6617162 0 0 0 -1.65625,-1.65625 l -17.6875,0 a 1.6617162,1.6617162 0 0 0 -0.15625,0 1.6617162,1.6617162 0 0 0 -0.1875,0 z"
       id="path3022" />
    <path
       style="font-size:medium;font-style:normal;font-variant:normal;font-weight:normal;font-stretch:normal;text-indent:0;text-align:start;text-decoration:none;line-height:normal;letter-spacing:normal;word-spacing:normal;text-transform:none;direction:ltr;block-progression:tb;writing-mode:lr-tb;text-anchor:start;baseline-shift:baseline;color:#000000;fill:#000000;fill-opacity:1;stroke:none;stroke-width:20;marker:none;visibility:visible;display:inline;overflow:visible;enable-background:accumulate;font-family:Sans;-inkscape-font-specification:Sans"
       d="m 989.66516,647.04523 a 1.6617162,1.6617162 0 0 0 -1.3125,1.65625 l 0,17.6875 a 1.6617162,1.6617162 0 0 0 1.65625,1.65625 l 17.68749,0 a 1.6617162,1.6617162 0 0 0 1.6563,-1.65625 l 0,-17.6875 a 1.6617162,1.6617162 0 0 0 -1.6563,-1.65625 l -17.68749,0 a 1.6617162,1.6617162 0 0 0 -0.1875,0 1.6617162,1.6617162 0 0 0 -0.15625,0 z"
       id="path3020" />
    <path
       style="font-size:medium;font-style:normal;font-variant:normal;font-weight:normal;font-stretch:normal;text-indent:0;text-align:start;text-decoration:none;line-height:normal;letter-spacing:normal;word-spacing:normal;text-transform:none;direction:ltr;block-progression:tb;writing-mode:lr-tb;text-anchor:start;baseline-shift:baseline;color:#000000;fill:#000000;fill-opacity:1;stroke:none;stroke-width:20;marker:none;visibility:visible;display:inline;overflow:visible;enable-background:accumulate;font-family:Sans;-inkscape-font-specification:Sans"
       d="m 898.25891,681.82648 a 1.6617162,1.6617162 0 0 0 -1.3125,1.65625 l 0,17.6875 a 1.6617162,1.6617162 0 0 0 1.65625,1.65625 l 17.6875,0 a 1.6617162,1.6617162 0 0 0 1.65625,-1.65625 l 0,-17.6875 a 1.6617162,1.6617162 0 0 0 -1.65625,-1.65625 l -17.6875,0 a 1.6617162,1.6617162 0 0 0 -0.15625,0 1.6617162,1.6617162 0 0 0 -0.1875,0 z"
       id="path3018" />
    <path
       style="font-size:medium;font-style:normal;font-variant:normal;font-weight:normal;font-stretch:normal;text-indent:0;text-align:start;text-decoration:none;line-height:normal;letter-spacing:normal;word-spacing:normal;text-transform:none;direction:ltr;block-progression:tb;writing-mode:lr-tb;text-anchor:start;baseline-shift:baseline;color:#000000;fill:#000000;fill-opacity:1;stroke:none;stroke-width:20;marker:none;visibility:visible;display:inline;overflow:visible;enable-background:accumulate;font-family:Sans;-inkscape-font-specification:Sans"
       d="m 989.66516,682.10773 a 1.6617162,1.6617162 0 0 0 -1.3125,1.65625 l 0,17.6875 a 1.6617162,1.6617162 0 0 0 1.65625,1.65625 l 17.68749,0 a 1.6617162,1.6617162 0 0 0 1.6563,-1.65625 l 0,-17.6875 a 1.6617162,1.6617162 0 0 0 -1.6563,-1.65625 l -17.68749,0 a 1.6617162,1.6617162 0 0 0 -0.1875,0 1.6617162,1.6617162 0 0 0 -0.15625,0 z"
       id="path3016" />
    <path
       style="font-size:medium;font-style:normal;font-variant:normal;font-weight:normal;font-stretch:normal;text-indent:0;text-align:start;text-decoration:none;line-height:normal;letter-spacing:normal;word-spacing:normal;text-transform:none;direction:ltr;block-progression:tb;writing-mode:lr-tb;text-anchor:start;baseline-shift:baseline;color:#000000;fill:#000000;fill-opacity:1;stroke:none;stroke-width:20;marker:none;visibility:visible;display:inline;overflow:visible;enable-background:accumulate;font-family:Sans;-inkscape-font-specification:Sans"
       d="m 937.88391,701.20148 a 4.7342236,4.7342236 0 0 0 -0.5,0.0312 4.7342236,4.7342236 0 0 0 -2.8125,1.375 l -6.46875,6.46875 a 4.7342236,4.7342236 0 0 0 -0.34375,0.34375 4.7342236,4.7342236 0 0 0 0.34375,6.34375 l 11.84375,11.875 -11.84375,11.84375 a 4.7342236,4.7342236 0 0 0 0,6.6875 l 6.4375,6.4375 a 4.7342236,4.7342236 0 0 0 6.6875,-0.0312 l 11.84375,-11.84375 11.96875,11.96875 a 4.7342236,4.7342236 0 0 0 6.6875,0 l 6.46875,-6.46875 a 4.7342236,4.7342236 0 0 0 0,-6.6875 l -11.96875,-11.96875 11.84375,-11.84375 a 4.7342236,4.7342236 0 0 0 0.0312,-6.6875 l -6.40625,-6.4375 a 4.7342236,4.7342236 0 0 0 -6.71875,0 l -11.84375,11.84375 -11.84375,-11.84375 a 4.7342236,4.7342236 0 0 0 -3.40625,-1.40625 z"
       id="path3014" />
    <path
       style="font-size:medium;font-style:normal;font-variant:normal;font-weight:normal;font-stretch:normal;text-indent:0;text-align:start;text-decoration:none;line-height:normal;letter-spacing:normal;word-spacing:normal;text-transform:none;direction:ltr;block-progression:tb;writing-mode:lr-tb;text-anchor:start;baseline-shift:baseline;color:#000000;fill:#000000;fill-opacity:1;stroke:none;stroke-width:20;marker:none;visibility:visible;display:inline;overflow:visible;enable-background:accumulate;font-family:Sans;-inkscape-font-specification:Sans"
       d="m 898.25891,716.79523 a 1.6617162,1.6617162 0 0 0 -1.3125,1.65625 l 0,17.6875 a 1.6617162,1.6617162 0 0 0 1.65625,1.65625 l 17.6875,0 a 1.6617162,1.6617162 0 0 0 1.65625,-1.65625 l 0,-17.6875 a 1.6617162,1.6617162 0 0 0 -1.65625,-1.65625 l -17.6875,0 a 1.6617162,1.6617162 0 0 0 -0.15625,0 1.6617162,1.6617162 0 0 0 -0.1875,0 z"
       id="path3012" />
    <path
       style="font-size:medium;font-style:normal;font-variant:normal;font-weight:normal;font-stretch:normal;text-indent:0;text-align:start;text-decoration:none;line-height:normal;letter-spacing:normal;word-spacing:normal;text-transform:none;direction:ltr;block-progression:tb;writing-mode:lr-tb;text-anchor:start;baseline-shift:baseline;color:#000000;fill:#000000;fill-opacity:1;stroke:none;stroke-width:20;marker:none;visibility:visible;display:inline;overflow:visible;enable-background:accumulate;font-family:Sans;-inkscape-font-specification:Sans"
       d="m 989.66516,717.17023 a 1.6617162,1.6617162 0 0 0 -1.3125,1.65625 l 0,17.6875 a 1.6617162,1.6617162 0 0 0 1.65625,1.65625 l 17.68749,0 a 1.6617162,1.6617162 0 0 0 1.6563,-1.65625 l 0,-17.6875 a 1.6617162,1.6617162 0 0 0 -1.6563,-1.65625 l -17.68749,0 a 1.6617162,1.6617162 0 0 0 -0.1875,0 1.6617162,1.6617162 0 0 0 -0.15625,0 z"
       id="path3010" />
    <path
       style="font-size:medium;font-style:normal;font-variant:normal;font-weight:normal;font-stretch:normal;text-indent:0;text-align:start;text-decoration:none;line-height:normal;letter-spacing:normal;word-spacing:normal;text-transform:none;direction:ltr;block-progression:tb;writing-mode:lr-tb;text-anchor:start;baseline-shift:baseline;color:#000000;fill:#000000;fill-opacity:1;stroke:none;stroke-width:20;marker:none;visibility:visible;display:inline;overflow:visible;enable-background:accumulate;font-family:Sans;-inkscape-font-specification:Sans"
       d="m 898.25891,751.79523 a 1.6617162,1.6617162 0 0 0 -1.3125,1.65625 l 0,17.6875 a 1.6617162,1.6617162 0 0 0 1.65625,1.65625 l 17.6875,0 a 1.6617162,1.6617162 0 0 0 1.65625,-1.65625 l 0,-17.6875 a 1.6617162,1.6617162 0 0 0 -1.65625,-1.65625 l -17.6875,0 a 1.6617162,1.6617162 0 0 0 -0.15625,0 1.6617162,1.6617162 0 0 0 -0.1875,0 z"
       id="path3008" />
    <path
       style="font-size:medium;font-style:normal;font-variant:normal;font-weight:normal;font-stretch:normal;text-indent:0;text-align:start;text-decoration:none;line-height:normal;letter-spacing:normal;word-spacing:normal;text-transform:none;direction:ltr;block-progression:tb;writing-mode:lr-tb;text-anchor:start;baseline-shift:baseline;color:#000000;fill:#000000;fill-opacity:1;stroke:none;stroke-width:20;marker:none;visibility:visible;display:inline;overflow:visible;enable-background:accumulate;font-family:Sans;-inkscape-font-specification:Sans"
       d="m 989.66516,752.23273 a 1.6617162,1.6617162 0 0 0 -1.3125,1.65625 l 0,17.6875 a 1.6617162,1.6617162 0 0 0 1.65625,1.65625 l 17.68749,0 a 1.6617162,1.6617162 0 0 0 1.6563,-1.65625 l 0,-17.6875 a 1.6617162,1.6617162 0 0 0 -1.6563,-1.65625 l -17.68749,0 a 1.6617162,1.6617162 0 0 0 -0.1875,0 1.6617162,1.6617162 0 0 0 -0.15625,0 z"
       id="path3006" />
    <path
       style="font-size:medium;font-style:normal;font-variant:normal;font-weight:normal;font-stretch:normal;text-indent:0;text-align:start;text-decoration:none;line-height:normal;letter-spacing:normal;word-spacing:normal;text-transform:none;direction:ltr;block-progression:tb;writing-mode:lr-tb;text-anchor:start;baseline-shift:baseline;color:#000000;fill:#000000;fill-opacity:1;stroke:none;stroke-width:20;marker:none;visibility:visible;display:inline;overflow:visible;enable-background:accumulate;font-family:Sans;-inkscape-font-specification:Sans"
       d="m 898.25891,786.76398 a 1.6617162,1.6617162 0 0 0 -1.3125,1.65625 l 0,17.6875 a 1.6617162,1.6617162 0 0 0 1.65625,1.65625 l 17.6875,0 a 1.6617162,1.6617162 0 0 0 1.65625,-1.65625 l 0,-17.6875 a 1.6617162,1.6617162 0 0 0 -1.65625,-1.65625 l -17.6875,0 a 1.6617162,1.6617162 0 0 0 -0.15625,0 1.6617162,1.6617162 0 0 0 -0.1875,0 z"
       id="path3004" />
    <path
       style="font-size:medium;font-style:normal;font-variant:normal;font-weight:normal;font-stretch:normal;text-indent:0;text-align:start;text-decoration:none;line-height:normal;letter-spacing:normal;word-spacing:normal;text-transform:none;direction:ltr;block-progression:tb;writing-mode:lr-tb;text-anchor:start;baseline-shift:baseline;color:#000000;fill:#000000;fill-opacity:1;stroke:none;stroke-width:20;marker:none;visibility:visible;display:inline;overflow:visible;enable-background:accumulate;font-family:Sans;-inkscape-font-specification:Sans"
       d="m 989.66516,787.29523 a 1.6617162,1.6617162 0 0 0 -1.3125,1.65625 l 0,17.6875 a 1.6617162,1.6617162 0 0 0 1.65625,1.65625 l 17.68749,0 a 1.6617162,1.6617162 0 0 0 1.6563,-1.65625 l 0,-17.6875 a 1.6617162,1.6617162 0 0 0 -1.6563,-1.65625 l -17.68749,0 a 1.6617162,1.6617162 0 0 0 -0.1875,0 1.6617162,1.6617162 0 0 0 -0.15625,0 z"
       id="path3002" />
    <path
       style="font-size:medium;font-style:normal;font-variant:normal;font-weight:normal;font-stretch:normal;text-indent:0;text-align:start;text-decoration:none;line-height:normal;letter-spacing:normal;word-spacing:normal;text-transform:none;direction:ltr;block-progression:tb;writing-mode:lr-tb;text-anchor:start;baseline-shift:baseline;color:#000000;fill:#000000;fill-opacity:1;stroke:none;stroke-width:20;marker:none;visibility:visible;display:inline;overflow:visible;enable-background:accumulate;font-family:Sans;-inkscape-font-specification:Sans"
       d="m 898.25891,821.73273 a 1.6617162,1.6617162 0 0 0 -1.3125,1.65625 l 0,17.6875 a 1.6617162,1.6617162 0 0 0 1.65625,1.6875 l 17.6875,0 a 1.6617162,1.6617162 0 0 0 1.65625,-1.6875 l 0,-17.6875 a 1.6617162,1.6617162 0 0 0 -1.65625,-1.65625 l -17.6875,0 a 1.6617162,1.6617162 0 0 0 -0.15625,0 1.6617162,1.6617162 0 0 0 -0.1875,0 z"
       id="path3000" />
    <path
       style="font-size:medium;font-style:normal;font-variant:normal;font-weight:normal;font-stretch:normal;text-indent:0;text-align:start;text-decoration:none;line-height:normal;letter-spacing:normal;word-spacing:normal;text-transform:none;direction:ltr;block-progression:tb;writing-mode:lr-tb;text-anchor:start;baseline-shift:baseline;color:#000000;fill:#000000;fill-opacity:1;stroke:none;stroke-width:20;marker:none;visibility:visible;display:inline;overflow:visible;enable-background:accumulate;font-family:Sans;-inkscape-font-specification:Sans"
       d="m 989.66516,822.35773 a 1.6617162,1.6617162 0 0 0 -1.3125,1.65625 l 0,17.6875 a 1.6617162,1.6617162 0 0 0 1.65625,1.65625 l 17.68749,0 a 1.6617162,1.6617162 0 0 0 1.6563,-1.65625 l 0,-17.6875 a 1.6617162,1.6617162 0 0 0 -1.6563,-1.65625 l -17.68749,0 a 1.6617162,1.6617162 0 0 0 -0.1875,0 1.6617162,1.6617162 0 0 0 -0.15625,0 z"
       id="path2998" />
    <path
       style="font-size:medium;font-style:normal;font-variant:normal;font-weight:normal;font-stretch:normal;text-indent:0;text-align:start;text-decoration:none;line-height:normal;letter-spacing:normal;word-spacing:normal;text-transform:none;direction:ltr;block-progression:tb;writing-mode:lr-tb;text-anchor:start;baseline-shift:baseline;color:#000000;fill:#000000;fill-opacity:1;stroke:none;stroke-width:20;marker:none;visibility:visible;display:inline;overflow:visible;enable-background:accumulate;font-family:Sans;-inkscape-font-specification:Sans"
       d="m 898.25891,856.73273 c -0.7464,0.1603 -1.32701,0.89297 -1.3125,1.65625 l 0,18.375 c 0.003,0.86643 0.78982,1.6534 1.65625,1.65625 l 17.6875,0 c 0.86643,-0.003 1.6534,-0.78982 1.65625,-1.65625 l 0,-18.375 c -0.003,-0.86643 -0.78982,-1.6534 -1.65625,-1.65625 l -17.6875,0 c -0.052,-0.002 -0.10421,-0.002 -0.15625,0 -0.0624,-0.004 -0.12507,-0.004 -0.1875,0 z"
       id="path2996" />
    <path
       style="font-size:medium;font-style:normal;font-variant:normal;font-weight:normal;font-stretch:normal;text-indent:0;text-align:start;text-decoration:none;line-height:normal;letter-spacing:normal;word-spacing:normal;text-transform:none;direction:ltr;block-progression:tb;writing-mode:lr-tb;text-anchor:start;baseline-shift:baseline;color:#000000;fill:#000000;fill-opacity:1;stroke:none;stroke-width:20;marker:none;visibility:visible;display:inline;overflow:visible;enable-background:accumulate;font-family:Sans;-inkscape-font-specification:Sans"
       d="m 928.72766,857.38898 a 1.6617162,1.6617162 0 0 0 -1.3125,1.65625 l 0,17.71875 a 1.6617162,1.6617162 0 0 0 1.65625,1.65625 l 17.6875,0 a 1.6617162,1.6617162 0 0 0 1.65625,-1.65625 l 0,-17.71875 a 1.6617162,1.6617162 0 0 0 -1.65625,-1.65625 l -17.6875,0 a 1.6617162,1.6617162 0 0 0 -0.15625,0 1.6617162,1.6617162 0 0 0 -0.1875,0 z"
       id="path2994" />
    <path
       style="font-size:medium;font-style:normal;font-variant:normal;font-weight:normal;font-stretch:normal;text-indent:0;text-align:start;text-decoration:none;line-height:normal;letter-spacing:normal;word-spacing:normal;text-transform:none;direction:ltr;block-progression:tb;writing-mode:lr-tb;text-anchor:start;baseline-shift:baseline;color:#000000;fill:#000000;fill-opacity:1;stroke:none;stroke-width:20;marker:none;visibility:visible;display:inline;overflow:visible;enable-background:accumulate;font-family:Sans;-inkscape-font-specification:Sans"
       d="m 959.19641,857.38898 a 1.6617162,1.6617162 0 0 0 -1.3125,1.65625 l 0,17.71875 a 1.6617162,1.6617162 0 0 0 1.65625,1.65625 l 17.6875,0 a 1.6617162,1.6617162 0 0 0 1.65625,-1.65625 l 0,-17.71875 a 1.6617162,1.6617162 0 0 0 -1.65625,-1.65625 l -17.6875,0 a 1.6617162,1.6617162 0 0 0 -0.15625,0 1.6617162,1.6617162 0 0 0 -0.1875,0 z"
       id="path2992" />
    <path
       style="font-size:medium;font-style:normal;font-variant:normal;font-weight:normal;font-stretch:normal;text-indent:0;text-align:start;text-decoration:none;line-height:normal;letter-spacing:normal;word-spacing:normal;text-transform:none;direction:ltr;block-progression:tb;writing-mode:lr-tb;text-anchor:start;baseline-shift:baseline;color:#000000;fill:#000000;fill-opacity:1;stroke:none;stroke-width:20;marker:none;visibility:visible;display:inline;overflow:visible;enable-background:accumulate;font-family:Sans;-inkscape-font-specification:Sans"
       d="m 989.66516,857.42023 a 1.6617162,1.6617162 0 0 0 -1.3125,1.65625 l 0,17.6875 a 1.6617162,1.6617162 0 0 0 1.65625,1.65625 l 17.68749,0 a 1.6617162,1.6617162 0 0 0 1.6563,-1.65625 l 0,-17.6875 a 1.6617162,1.6617162 0 0 0 -1.6563,-1.65625 l -17.68749,0 a 1.6617162,1.6617162 0 0 0 -0.1875,0 1.6617162,1.6617162 0 0 0 -0.15625,0 z"
       id="path3035" />
    <path
       inkscape:connector-curvature="0"
       style="font-size:20px;font-style:normal;font-variant:normal;font-weight:normal;font-stretch:normal;line-height:125%;letter-spacing:3.53999996px;word-spacing:0px;fill:#000000;fill-opacity:1;stroke:none;font-family:Navigator;-inkscape-font-specification:Navigator"
       d="m 624.68079,461.15718 a 4.0003998,4.0003998 0 0 0 -3.5937,4 l 0,48.25 a 4.0003998,4.0003998 0 0 0 4,4 l 4.7812,0 a 4.0003998,4.0003998 0 0 0 4,-4 l 0,-11.1875 c 2.662,2.75923 5.5978,5.80936 13.4375,13.96875 a 4.0003998,4.0003998 0 0 0 2.875,1.21875 l 7.1875,0 a 4.0003998,4.0003998 0 0 0 2.9063,-6.75 l -15.2188,-15.90625 c 0.472,-0.17251 0.9926,-0.282 1.4375,-0.5 l 0,0.0312 c 0.035,-0.0146 0.058,-0.0478 0.094,-0.0625 0.066,-0.033 0.1531,-0.0284 0.2188,-0.0625 l -0.031,-0.0312 c 3.1579,-1.35236 5.8889,-3.37043 7.9062,-6.03125 2.159,-2.84768 3.25,-6.34725 3.25,-10 0,-4.47471 -1.5915,-8.72593 -4.625,-11.9375 -3.0335,-3.21138 -7.2245,-4.99994 -11.6562,-5 -3.9588,5e-5 -6.7231,5e-5 -8.25,0 -2.5696,5e-5 -5.3255,5e-5 -8.3125,0 a 4.0003998,4.0003998 0 0 0 -0.4063,0 z m 54.25,0 a 4.0003998,4.0003998 0 0 0 -3.5937,4 l 0,48.25 a 4.0003998,4.0003998 0 0 0 4,4 l 27.8124,0 a 4.0003998,4.0003998 0 0 0 4,-4 l 0,-5.3125 a 4.0003998,4.0003998 0 0 0 -4,-4 l -18.0937,0 0,-8.15625 14.4375,0 a 4.0003998,4.0003998 0 0 0 4,-4 l 0,-5.3125 a 4.0003998,4.0003998 0 0 0 -4,-4 l -14.4375,0 0,-8.15625 18.0937,0 a 4.0003998,4.0003998 0 0 0 4,-4 l 0,-5.3125 a 4.0003998,4.0003998 0 0 0 -4,-4 l -27.8124,0 a 4.0003998,4.0003998 0 0 0 -0.4063,0 z m 50.9687,0 a 4.0003998,4.0003998 0 0 0 -3.5937,4 l 0,48.25 a 4.0003998,4.0003998 0 0 0 4,4 l 5.3125,0 a 4.0003998,4.0003998 0 0 0 4,-4 l 0,-17.15625 6.8437,18.53125 a 4.0003998,4.0003998 0 0 0 3.75,2.625 l 4.9063,0 a 4.0003998,4.0003998 0 0 0 3.75,-2.59375 l 6.9375,-18.65625 0,17.25 a 4.0003998,4.0003998 0 0 0 4,4 l 5.3125,0 a 4.0003998,4.0003998 0 0 0 4,-4 l 0,-48.25 a 4.0003998,4.0003998 0 0 0 -4,-4 l -7.625,0 a 4.0003998,4.0003998 0 0 0 -3.7188,2.53125 l -11.0625,28.3125 -11.0625,-28.3125 a 4.0003998,4.0003998 0 0 0 -3.7187,-2.53125 l -7.625,0 a 4.0003998,4.0003998 0 0 0 -0.4063,0 z m 87.75,0 c -6.5706,6e-5 -12.5602,3.08895 -16.9687,8.5 -4.4077,5.4101 -6.625,12.13631 -6.625,19.5625 0,7.42624 2.1921,14.15098 6.5937,19.59375 4.4032,5.44471 10.4157,8.59375 17,8.59375 6.5843,0 12.5671,-3.13147 17,-8.5625 4.4394,-5.439 6.6875,-12.18794 6.6875,-19.625 0,-7.43677 -2.2413,-14.15604 -6.6875,-19.5625 -4.4377,-5.3977 -10.4293,-8.49994 -17,-8.5 z m 40.7813,0 a 4.0003998,4.0003998 0 0 0 -3.3125,5.4375 l 18.5312,48.25 a 4.0003998,4.0003998 0 0 0 3.7188,2.5625 l 6.25,0 a 4.0003998,4.0003998 0 0 0 3.7187,-2.5625 l 18.5625,-48.25 a 4.0003998,4.0003998 0 0 0 -3.7187,-5.4375 l -5.75,0 a 4.0003998,4.0003998 0 0 0 -3.7188,2.5625 l -12.2187,31.78125 -12.2188,-31.78125 a 4.0003998,4.0003998 0 0 0 -3.7187,-2.5625 l -5.7188,0 a 4.0003998,4.0003998 0 0 0 -0.4062,0 z m 65.4062,0 a 4.0003998,4.0003998 0 0 0 -3.5937,4 l 0,48.25 a 4.0003998,4.0003998 0 0 0 4,4 l 27.8125,0 a 4.0003998,4.0003998 0 0 0 4,-4 l 0,-5.3125 a 4.0003998,4.0003998 0 0 0 -4,-4 l -18.0625,0 0,-8.15625 14.4375,0 a 4.0003998,4.0003998 0 0 0 4,-4 l 0,-5.3125 a 4.0003998,4.0003998 0 0 0 -4,-4 l -14.4375,0 0,-8.15625 18.0625,0 a 4.0003998,4.0003998 0 0 0 4,-4 l 0,-5.3125 a 4.0003998,4.0003998 0 0 0 -4,-4 l -27.8125,0 a 4.0003998,4.0003998 0 0 0 -0.4063,0 z m -289.9687,11.96875 6.3125,0 c 1.6409,3e-5 2.6119,0.38396 3.6875,1.375 1.0018,0.92313 1.3032,1.5926 1.2813,2.9375 -3e-4,0.0126 2e-4,0.0186 0,0.0312 -0.099,1.72959 -0.5953,2.88205 -1.6563,4.03125 -1.0093,1.09323 -1.7905,1.43752 -3.2187,1.4375 l -6.4063,0 0,-9.8125 z m 183.8125,1.25 c 3.22,3e-5 5.4755,1.08644 7.7812,3.96875 2.3243,2.90569 3.5,6.35725 3.5,10.9375 0,4.58031 -1.1753,8.03089 -3.5,10.9375 -2.3056,2.88269 -4.5608,3.96876 -7.7812,3.96875 -3.2205,1e-5 -5.4349,-1.07469 -7.75,-3.96875 -2.325,-2.90631 -3.5,-6.35691 -3.5,-10.9375 0,-4.58023 1.176,-8.03278 3.5,-10.9375 2.316,-2.89452 4.5295,-3.96872 7.75,-3.96875 z"
       id="path3044" />
  </g>
</svg>
